<svg width="637" height="701" viewBox="0 0 637 701" fill="none" xmlns="http://www.w3.org/2000/svg">
<path d="M536.6 117.65C536.6 339.25 455.5 440.45 356.4 515.95C345.7 524.05 330.8 524.05 320.1 515.95C318.6 514.75 317 513.55 315.5 512.35C314 511.15 312.4 509.95 310.9 508.75C309.4 507.55 307.8 506.35 306.3 505.15C305.3 504.35 304.4 503.65 303.4 502.85C302.3 501.95 301.2 501.05 300.1 500.15C298.8 499.05 297.5 497.95 296.2 496.85C292 493.35 288 489.85 283.9 486.25C282.4 484.95 281 483.65 279.5 482.35C278.1 481.05 276.6 479.65 275.2 478.35C273.8 477.05 272.3 475.65 270.9 474.25C269.6 473.05 268.3 471.75 267.1 470.55C265.6 469.05 264 467.55 262.5 465.95C261.2 464.65 259.8 463.25 258.5 461.85C256 459.25 253.5 456.65 251.1 453.95C250.3 453.05 249.5 452.15 248.7 451.25C247.8 450.25 247 449.35 246.1 448.35C244.8 446.85 243.5 445.45 242.2 443.95C241.1 442.65 240 441.45 239 440.15C237.2 437.95 235.4 435.75 233.6 433.55C231.7 431.15 229.8 428.75 227.9 426.25C227.8 426.15 227.7 426.05 227.6 425.95C226.7 424.85 225.9 423.65 225 422.55C224.7 422.05 224.3 421.65 224 421.15C223.4 420.35 222.7 419.45 222.1 418.55C221 417.05 220 415.65 218.9 414.15C218.2 413.15 217.4 412.05 216.7 411.05C216.3 410.55 216 409.95 215.6 409.45C214.5 407.85 213.5 406.35 212.4 404.75C210.2 401.35 208 397.95 205.8 394.45C204.7 392.75 203.7 390.95 202.6 389.25C201.9 388.05 201.2 386.95 200.6 385.75C199.2 383.35 197.8 380.95 196.5 378.55C195.5 376.75 194.5 374.95 193.5 373.05C192.6 371.25 191.7 369.55 190.7 367.75C189.8 366.05 188.9 364.25 188.1 362.45C188.1 362.35 188.1 362.35 188 362.25C187.1 360.45 186.2 358.55 185.4 356.75C185.3 356.65 185.3 356.45 185.2 356.35C184.4 354.65 183.6 352.95 182.8 351.15C182 349.25 181.1 347.35 180.3 345.45C179.5 343.55 178.6 341.65 177.8 339.65C177 337.85 176.3 335.95 175.5 334.05C175.5 333.95 175.4 333.85 175.4 333.75C174.6 331.85 173.9 329.85 173.1 327.85C172.3 325.75 171.5 323.75 170.8 321.65C170.3 320.15 169.7 318.75 169.2 317.25C168.4 314.95 167.6 312.65 166.8 310.35C166.5 309.45 166.2 308.65 166 307.75C165.4 305.95 164.8 304.05 164.2 302.15C163.6 300.25 163 298.25 162.4 296.35C161.8 294.45 161.3 292.45 160.7 290.55C160 287.95 159.2 285.35 158.5 282.75C157.9 280.65 157.4 278.45 156.9 276.25C155.8 271.65 154.7 267.05 153.6 262.35C151.2 251.45 149.1 240.15 147.3 228.45C146.9 225.95 146.5 223.45 146.2 220.95C145.7 217.75 145.3 214.65 144.9 211.35C144.6 208.85 144.3 206.25 144 203.75C144 203.65 144 203.55 144 203.45C143.7 200.55 143.3 197.55 143.1 194.55C142.7 190.85 142.4 187.15 142.1 183.35C142 182.45 141.9 181.55 141.9 180.65C141.7 178.45 141.5 176.15 141.4 173.85C141.1 170.35 140.9 166.85 140.7 163.35C140.6 162.35 140.6 161.35 140.5 160.35C140.3 156.25 140.1 152.05 139.9 147.85C139.2 129.55 139.2 110.35 139.7 90.25C140 84.35 143.9 79.55 149.5 78.25C207.6 63.85 265.2 38.65 322.3 4.35C332 -1.45 344 -1.45 353.7 4.35C410.7 38.55 468.1 63.75 526 78.15C531.7 79.55 535.8 84.45 536 90.35C536.6 99.75 536.6 108.95 536.6 117.65Z" fill="#F9B21E"/>
<path d="M529.9 122.75C529.9 344.35 448.8 445.55 349.8 521.05C339.1 529.15 324.2 529.15 313.5 521.05C210.5 442.65 126.7 336.15 133.3 95.55C133.6 89.65 137.5 84.85 143.1 83.45C201.2 69.05 258.7 43.85 315.9 9.55C325.6 3.75 337.7 3.75 347.3 9.55C404.3 43.75 461.7 68.95 519.6 83.35C525.3 84.75 529.4 89.65 529.6 95.55C529.9 104.85 529.9 114.05 529.9 122.75Z" fill="#F9B21E"/>
<path d="M536.6 117.65C536.6 339.25 455.5 440.45 356.4 515.95C345.7 524.05 330.8 524.05 320.1 515.95C318.6 514.75 317 513.55 315.5 512.35C314 511.15 312.4 509.95 310.9 508.75C309.4 507.55 307.8 506.35 306.3 505.15C305.3 504.35 304.4 503.65 303.4 502.85C302.3 501.95 301.2 501.05 300.1 500.15C298.8 499.05 297.5 497.95 296.2 496.85C292 493.35 288 489.85 283.9 486.25C282.4 484.95 281 483.65 279.5 482.35C278.1 481.05 276.6 479.65 275.2 478.35C273.8 477.05 272.3 475.65 270.9 474.25C269.6 473.05 268.3 471.75 267.1 470.55C265.6 469.05 264 467.55 262.5 465.95C261.2 464.65 259.8 463.25 258.5 461.85C256 459.25 253.5 456.65 251.1 453.95C250.3 453.05 249.5 452.15 248.7 451.25C247.8 450.25 247 449.35 246.1 448.35C244.8 446.85 243.5 445.45 242.2 443.95C241.1 442.65 240 441.45 239 440.15C237.2 437.95 235.4 435.75 233.6 433.55C231.7 431.15 229.8 428.75 227.9 426.25C227.8 426.15 227.7 426.05 227.6 425.95C226.7 424.85 225.9 423.65 225 422.55C224.7 422.05 224.3 421.65 224 421.15C223.4 420.35 222.7 419.45 222.1 418.55C221 417.05 220 415.65 218.9 414.15C218.2 413.15 217.4 412.05 216.7 411.05C216.3 410.55 216 409.95 215.6 409.45C214.5 407.85 213.5 406.35 212.4 404.75C210.2 401.35 208 397.95 205.8 394.45C204.7 392.75 203.7 390.95 202.6 389.25C201.9 388.05 201.2 386.95 200.6 385.75C199.2 383.35 197.8 380.95 196.5 378.55C195.5 376.75 194.5 374.95 193.5 373.05C192.6 371.25 191.7 369.55 190.7 367.75C189.8 366.05 188.9 364.25 188.1 362.45C188.1 362.35 188.1 362.35 188 362.25C187.1 360.45 186.2 358.55 185.4 356.75C185.3 356.65 185.3 356.45 185.2 356.35C184.4 354.65 183.6 352.95 182.8 351.15C182 349.25 181.1 347.35 180.3 345.45C179.5 343.55 178.6 341.65 177.8 339.65C177 337.85 176.3 335.95 175.5 334.05C175.5 333.95 175.4 333.85 175.4 333.75C174.6 331.85 173.9 329.85 173.1 327.85C172.3 325.75 171.5 323.75 170.8 321.65C170.3 320.15 169.7 318.75 169.2 317.25C168.4 314.95 167.6 312.65 166.8 310.35C166.5 309.45 166.2 308.65 166 307.75C165.4 305.95 164.8 304.05 164.2 302.15C163.6 300.25 163 298.25 162.4 296.35C161.8 294.45 161.3 292.45 160.7 290.55C160 287.95 159.2 285.35 158.5 282.75C157.9 280.65 157.4 278.45 156.9 276.25C155.8 271.65 154.7 267.05 153.6 262.35C151.2 251.45 149.1 240.15 147.3 228.45C146.9 225.95 146.5 223.45 146.2 220.95C145.7 217.75 145.3 214.65 144.9 211.35C144.6 208.85 144.3 206.25 144 203.75C144 203.65 144 203.55 144 203.45C143.7 200.55 143.3 197.55 143.1 194.55C142.7 190.85 142.4 187.15 142.1 183.35C142 182.45 141.9 181.55 141.9 180.65C141.7 178.45 141.5 176.15 141.4 173.85C141.1 170.35 140.9 166.85 140.7 163.35C140.6 162.35 140.6 161.35 140.5 160.35C140.3 156.25 140.1 152.05 139.9 147.85C139.2 129.55 139.2 110.35 139.7 90.25C140 84.35 143.9 79.55 149.5 78.25C207.6 63.85 265.2 38.65 322.3 4.35C332 -1.45 344 -1.45 353.7 4.35C410.7 38.55 468.1 63.75 526 78.15C531.7 79.55 535.8 84.45 536 90.35C536.6 99.75 536.6 108.95 536.6 117.65Z" fill="#FFD488"/>
<path d="M370.3 468.25C364.6 472.55 356.5 468.35 356.5 461.25V258.25C356.5 255.35 357 252.55 358.1 249.95L393.8 157.75C394.3 156.55 393.3 155.25 391.9 155.25H360.6C359.7 155.25 359.2 155.25 359 155.95C358.7 156.65 357.6 156.45 357.6 155.65L356.6 56.85C356.6 50.85 363.2 47.05 368.3 50.15L368.4 50.25C415.1 78.25 462.1 98.85 509.5 110.65C514.1 111.85 517.3 115.65 517.5 120.45C522.9 317.15 454.5 404.15 370.3 468.25Z" fill="#F9B21E"/>
<path d="M538.3 349.65L537.2 352.25C538.2 353.05 539 354.25 539.2 355.65C539.3 355.95 539.3 356.25 539.3 356.55C539.3 359.25 537.4 361.55 534.7 362.05L532.7 362.45L530.8 366.75L527.4 374.65L512.2 409.25L498.8 411.15L499 372.65L482.3 359.15C482.3 359.15 435.6 364.25 416 361.05L414.1 373.15C414.1 373.15 409 376.65 406.6 375.35L394 357.95C394 357.95 379.2 359.25 387.1 350.45L359.5 325.05C359.5 325.05 362 315.35 396.3 335.35L394.7 314.95C394.7 314.95 399.6 313.65 402.7 314.45C405.8 315.15 427.4 337.45 427.4 337.45C427.4 337.45 458.3 330.95 459 331.05L443.4 315.75L374.8 273.65C374.5 273.45 374.4 273.05 374.7 272.75C376.2 270.95 381.7 265.35 387.3 267.55C390.9 268.95 430.7 283.95 466.6 297.35L480.5 294.95C483.6 294.45 486.5 296.45 487 299.55C487.1 299.85 487.1 300.15 487.1 300.45C487.1 301.95 486.5 303.45 485.5 304.45C488.3 305.45 491 306.55 493.6 307.45L506.8 305.15C510 304.55 513.1 306.75 513.7 310.05C513.8 310.35 513.8 310.65 513.8 311.05C513.8 312.35 513.4 313.65 512.7 314.65C520.2 317.45 524.8 319.15 524.8 319.15L567.3 310.35C567.3 310.35 584.4 301.55 597.9 308.95C597.9 308.95 626.5 312.75 612.6 326.65C612.6 326.35 594.9 343.05 538.3 349.65Z" fill="#8B244F"/>
<path d="M531.5 369.35C531.5 371.85 529.8 374.05 527.3 374.55L530.7 366.65C531 367.15 531.2 367.75 531.3 368.45C531.5 368.75 531.5 369.05 531.5 369.35Z" fill="#8B244F"/>
<path d="M137.1 243.65C113.6 259.55 70.7001 281.55 71.6001 313.85C70.5001 309.75 70.4001 305.25 71.1001 300.95C76.6001 272.65 112.3 252.95 137.1 243.65Z" fill="#8B244F"/>
<path d="M343.8 304.85C291.7 328.35 184.6 365.45 129.2 351.75L125.7 350.65L122.3 349.35L119 347.75C123.5 349.65 128.2 350.65 133 351.25C143.7 352.65 154.6 352.05 165.3 351.05C178.5 349.75 191.5 347.55 204.5 344.85C251.5 335.05 298.1 319.75 343.8 304.85Z" fill="#8B244F"/>
<path d="M112.5 288.75C95.3999 311.35 62.4999 355.55 78.1999 384.25C97.1999 416.75 167.5 410.55 200.1 406.55C248 400.45 294.9 388.15 341.1 373.85C280.9 397.45 217.4 415.25 152.2 416.15C126 415.75 87.5999 412.35 73.4999 386.85C57.1999 354.65 91.6999 311.75 112.5 288.75Z" fill="#8B244F"/>
<path d="M447.5 400.35C367 430.65 192 478.65 112.4 442.85C101.7 437.85 91.6 429.95 87 418.75C90.6 425.75 96.4 431.25 103 435.35C173.3 476.35 368.5 422.05 447.5 400.35Z" fill="#8B244F"/>
<path d="M240.5 196.45C240 196.45 239.6 196.75 239.4 197.15L232.7 213.05L231.3 216.35L218.9 251.25C218.5 252.25 217.1 252.35 216.7 251.25L179 154.35C178.8 153.75 178.2 153.35 177.5 153.35H158C156.9 153.35 156.1 154.55 156.5 155.55L214.3 299.55C214.5 300.05 214.9 300.25 215.4 300.25H219.5C220 300.25 220.4 299.95 220.6 299.45L260.6 197.85C260.9 197.05 260.3 196.25 259.5 196.25H240.5V196.45Z" fill="#EF990F"/>
<path d="M363.8 160.65L332.1 246.05C331.7 247.15 330.2 247.05 329.8 245.95L302 158.15C301.9 157.75 301.5 157.45 301 157.45H296.4L266.8 246.05C266.4 247.15 264.9 247.15 264.6 246.05L256.6 223.95C256.2 222.95 254.8 222.85 254.4 223.85L245 246.15C244.9 246.45 244.9 246.75 245 247.05L262.8 295.45C263 295.95 263.4 296.25 263.9 296.25H267.6C268.1 296.25 268.5 295.95 268.7 295.45L298 216.05C298.4 214.95 299.9 215.05 300.2 216.05L327.1 295.45C327.3 295.95 327.7 296.25 328.2 296.25H332.1C332.6 296.25 333 295.95 333.2 295.45L383.7 161.75C384.1 160.65 383.3 159.55 382.2 159.55H365.2C364.7 159.65 364.1 160.05 363.8 160.65ZM246.8 196.45L246.6 196.55H239.8L232.8 212.55C232.7 212.85 232.7 213.15 232.8 213.45L241.8 238.25C242.2 239.25 243.6 239.35 244 238.35L253.4 215.95C253.5 215.65 253.5 215.35 253.4 215.05L246.8 196.45ZM232.5 159.65H215.5C214.4 159.65 213.6 160.75 214 161.85L229.9 206.15C230.3 207.15 231.7 207.25 232.1 206.25L235 199.35L237.3 193.95L237.9 192.55V192.35H243.4C244.2 192.35 244.8 191.55 244.5 190.75L234.1 160.85C233.8 160.05 233.2 159.65 232.5 159.65Z" fill="#EF990F"/>
<path fill-rule="evenodd" clip-rule="evenodd" d="M241.5 613.95H192.9V581.55H241.5V613.95Z" fill="white" stroke="black" stroke-width="0.2211" stroke-miterlimit="2.4142"/>
<path fill-rule="evenodd" clip-rule="evenodd" d="M241.3 603.05H193.1V592.35H241.3V603.05Z" fill="white"/>
<path fill-rule="evenodd" clip-rule="evenodd" d="M241.3 592.35H193.1V581.65H241.3V592.35Z" fill="#EF7D00"/>
<path fill-rule="evenodd" clip-rule="evenodd" d="M193.1 613.85H241.3V603.05H193.1V613.85Z" fill="#007B4F"/>
<path fill-rule="evenodd" clip-rule="evenodd" d="M217.2 602.75C220 602.75 222.2 600.55 222.2 597.75C222.2 594.95 220 592.75 217.2 592.75C214.4 592.75 212.2 594.95 212.2 597.75C212.2 600.45 214.4 602.75 217.2 602.75Z" fill="#002E53"/>
<path fill-rule="evenodd" clip-rule="evenodd" d="M218.1 593.35C218.1 593.55 217.9 593.65 217.8 593.55C217.7 593.45 217.5 593.35 217.5 593.25C217.3 593.25 217.1 593.25 216.9 593.25C216.9 593.45 216.8 593.55 216.7 593.55C216.5 593.55 216.4 593.45 216.4 593.35C216.2 593.35 216 593.45 215.8 593.45C215.9 593.55 215.8 593.75 215.6 593.85C215.5 593.95 215.3 593.85 215.2 593.65C215 593.75 214.8 593.85 214.7 593.95C214.8 594.05 214.8 594.25 214.6 594.35C214.5 594.45 214.3 594.45 214.2 594.35C214.1 594.45 213.9 594.65 213.8 594.75C213.9 594.85 213.9 595.05 213.9 595.15C213.8 595.25 213.6 595.35 213.5 595.25C213.4 595.35 213.3 595.65 213.2 595.75C213.3 595.85 213.4 595.95 213.4 596.15C213.3 596.25 213.2 596.35 213 596.35C212.9 596.55 212.9 596.75 212.8 596.95C213 596.95 213.1 597.15 213 597.25C212.9 597.35 212.8 597.55 212.7 597.55C212.7 597.75 212.7 597.95 212.7 598.15C212.9 598.15 213 598.25 213 598.35C213 598.55 212.9 598.65 212.8 598.65C212.8 598.85 212.9 599.05 212.9 599.25C213 599.15 213.2 599.25 213.3 599.45C213.4 599.55 213.3 599.75 213.1 599.85C213.2 600.05 213.3 600.25 213.4 600.35C213.5 600.25 213.7 600.25 213.8 600.45C213.9 600.55 213.9 600.75 213.8 600.85C213.9 600.95 214.1 601.15 214.2 601.25C214.3 601.15 214.5 601.15 214.6 601.15C214.7 601.25 214.8 601.45 214.7 601.55C214.8 601.65 215.1 601.75 215.2 601.85C215.3 601.75 215.4 601.65 215.6 601.65C215.7 601.75 215.8 601.85 215.8 602.05C216 602.15 216.2 602.15 216.4 602.25C216.4 602.05 216.6 601.95 216.7 602.05C216.8 602.15 217 602.25 217 602.35C217.2 602.35 217.4 602.35 217.6 602.35C217.6 602.15 217.7 602.05 217.8 602.05C218 602.05 218.1 602.15 218.1 602.25C218.3 602.25 218.5 602.15 218.7 602.15C218.6 602.05 218.7 601.85 218.9 601.75C219 601.65 219.2 601.75 219.3 601.95C219.5 601.85 219.7 601.75 219.8 601.65C219.7 601.55 219.7 601.35 219.9 601.25C220 601.15 220.2 601.15 220.3 601.25C220.4 601.15 220.6 600.95 220.7 600.85C220.6 600.75 220.6 600.55 220.6 600.45C220.6 600.35 220.9 600.25 221 600.35C221.1 600.25 221.2 599.95 221.3 599.85C221.2 599.75 221.1 599.65 221.1 599.45C221.2 599.35 221.3 599.25 221.5 599.25C221.6 599.05 221.6 598.85 221.7 598.65C221.5 598.65 221.4 598.45 221.5 598.35C221.6 598.25 221.7 598.05 221.8 598.05C221.8 597.85 221.8 597.65 221.8 597.45C221.6 597.45 221.5 597.35 221.5 597.25C221.5 597.15 221.6 596.95 221.7 596.95C221.7 596.75 221.6 596.55 221.6 596.35C221.5 596.45 221.3 596.35 221.2 596.15C221.1 596.05 221.2 595.85 221.4 595.75C221.3 595.55 221.2 595.35 221.1 595.25C221 595.35 220.8 595.35 220.7 595.15C220.6 595.05 220.6 594.85 220.7 594.75C220.6 594.65 220.4 594.45 220.3 594.35C220.2 594.45 220 594.45 219.9 594.45C219.8 594.35 219.7 594.15 219.8 594.05C219.7 593.95 219.4 593.85 219.3 593.75C219.2 593.85 219.1 593.95 218.9 593.95C218.8 593.85 218.7 593.75 218.7 593.55C218.5 593.45 218.2 593.45 218.1 593.35Z" fill="white"/>
<path fill-rule="evenodd" clip-rule="evenodd" d="M217.2 597.75C217.3 596.85 217.2 596.45 217.4 595.85C217.3 595.05 217.3 593.75 217.2 593.25C217.2 593.65 217.1 595.05 217 595.85C217.2 596.45 217.1 596.85 217.2 597.75Z" fill="#002E53"/>
<path fill-rule="evenodd" clip-rule="evenodd" d="M217.2 597.75C217 596.95 216.9 596.45 216.9 595.95C216.6 595.25 216.2 593.95 216.1 593.55C216.2 593.95 216.5 595.35 216.6 596.05C216.8 596.45 216.9 596.95 217.2 597.75Z" fill="#002E53"/>
<path fill-rule="evenodd" clip-rule="evenodd" d="M217.2 597.75C216.8 596.95 216.6 596.65 216.4 596.05C215.9 595.45 215.2 594.25 215 593.95C215.2 594.35 215.8 595.55 216.1 596.25C216.5 596.65 216.7 597.05 217.2 597.75Z" fill="#002E53"/>
<path fill-rule="evenodd" clip-rule="evenodd" d="M217.2 597.75C216.6 597.15 216.3 596.85 216 596.35C215.4 595.85 214.4 594.95 214.1 594.65C214.4 595.05 215.3 595.95 215.8 596.55C216.3 596.85 216.6 597.15 217.2 597.75Z" fill="#002E53"/>
<path fill-rule="evenodd" clip-rule="evenodd" d="M217.2 597.75C216.5 597.25 216.1 597.05 215.7 596.65C215 596.35 213.8 595.65 213.4 595.55C213.8 595.85 214.9 596.55 215.5 596.95C216.1 597.15 216.4 597.35 217.2 597.75Z" fill="#002E53"/>
<path fill-rule="evenodd" clip-rule="evenodd" d="M217.2 597.75C216.4 597.45 216 597.35 215.4 597.15C214.7 597.05 213.3 596.75 212.9 596.65C213.3 596.85 214.6 597.15 215.3 597.45C215.9 597.45 216.4 597.55 217.2 597.75Z" fill="#002E53"/>
<path fill-rule="evenodd" clip-rule="evenodd" d="M217.2 597.75C216.3 597.65 215.9 597.75 215.3 597.55C214.5 597.65 213.2 597.65 212.7 597.75C213.1 597.75 214.5 597.85 215.3 597.95C215.9 597.75 216.3 597.75 217.2 597.75Z" fill="#002E53"/>
<path fill-rule="evenodd" clip-rule="evenodd" d="M217.2 597.75C216.4 597.95 215.9 598.05 215.4 598.05C214.7 598.35 213.4 598.75 213 598.85C213.4 598.75 214.8 598.45 215.5 598.35C215.9 598.05 216.4 598.05 217.2 597.75Z" fill="#002E53"/>
<path fill-rule="evenodd" clip-rule="evenodd" d="M217.2 597.75C216.4 598.15 216.1 598.35 215.5 598.55C214.9 599.05 213.7 599.75 213.4 599.95C213.8 599.75 215 599.15 215.7 598.85C216.1 598.45 216.5 598.25 217.2 597.75Z" fill="#002E53"/>
<path fill-rule="evenodd" clip-rule="evenodd" d="M217.2 597.75C216.6 598.35 216.3 598.65 215.8 598.95C215.3 599.55 214.4 600.55 214.1 600.85C214.5 600.55 215.4 599.65 216 599.15C216.3 598.65 216.6 598.35 217.2 597.75Z" fill="#002E53"/>
<path fill-rule="evenodd" clip-rule="evenodd" d="M217.2 597.75C216.7 598.45 216.5 598.85 216.1 599.25C215.8 599.95 215.1 601.15 215 601.55C215.3 601.15 216 600.05 216.4 599.45C216.6 598.85 216.8 598.55 217.2 597.75Z" fill="#002E53"/>
<path fill-rule="evenodd" clip-rule="evenodd" d="M217.2 597.75C216.9 598.55 216.8 598.95 216.6 599.55C216.5 600.25 216.2 601.65 216.1 602.05C216.3 601.65 216.6 600.35 216.9 599.65C216.9 598.95 217 598.55 217.2 597.75Z" fill="#002E53"/>
<path fill-rule="evenodd" clip-rule="evenodd" d="M217.2 597.75C217.1 598.65 217.2 599.05 217 599.65C217.1 600.45 217.1 601.75 217.2 602.25C217.2 601.85 217.3 600.45 217.4 599.65C217.2 599.05 217.3 598.55 217.2 597.75Z" fill="#002E53"/>
<path fill-rule="evenodd" clip-rule="evenodd" d="M217.2 597.75C217.4 598.55 217.5 599.05 217.5 599.55C217.8 600.25 218.2 601.55 218.3 601.95C218.2 601.55 217.9 600.15 217.8 599.45C217.6 598.95 217.5 598.55 217.2 597.75Z" fill="#002E53"/>
<path fill-rule="evenodd" clip-rule="evenodd" d="M217.2 597.75C217.6 598.55 217.8 598.85 218 599.45C218.5 600.05 219.2 601.25 219.4 601.55C219.2 601.15 218.6 599.95 218.3 599.25C217.9 598.85 217.7 598.45 217.2 597.75Z" fill="#002E53"/>
<path fill-rule="evenodd" clip-rule="evenodd" d="M217.2 597.75C217.8 598.35 218.1 598.65 218.4 599.15C219 599.65 220 600.55 220.3 600.85C220 600.45 219.1 599.55 218.6 598.95C218.1 598.65 217.8 598.25 217.2 597.75Z" fill="#002E53"/>
<path fill-rule="evenodd" clip-rule="evenodd" d="M217.2 597.75C217.9 598.25 218.3 598.45 218.7 598.85C219.4 599.15 220.6 599.85 221 599.95C220.6 599.65 219.5 598.95 218.9 598.55C218.3 598.35 218 598.15 217.2 597.75Z" fill="#002E53"/>
<path fill-rule="evenodd" clip-rule="evenodd" d="M217.2 597.75C218 598.05 218.4 598.15 219 598.35C219.7 598.45 221.1 598.75 221.5 598.85C221.1 598.65 219.8 598.35 219.1 598.05C218.5 598.05 218 597.85 217.2 597.75Z" fill="#002E53"/>
<path fill-rule="evenodd" clip-rule="evenodd" d="M217.2 597.75C218.1 597.85 218.5 597.75 219.1 597.95C219.9 597.85 221.2 597.85 221.7 597.75C221.3 597.75 219.9 597.65 219.1 597.55C218.5 597.75 218.1 597.65 217.2 597.75Z" fill="#002E53"/>
<path fill-rule="evenodd" clip-rule="evenodd" d="M217.2 597.75C218 597.55 218.5 597.45 219 597.45C219.7 597.15 221 596.75 221.4 596.65C221 596.75 219.6 597.05 218.9 597.15C218.4 597.35 218 597.45 217.2 597.75Z" fill="#002E53"/>
<path fill-rule="evenodd" clip-rule="evenodd" d="M217.2 597.75C218 597.35 218.3 597.15 218.9 596.95C219.5 596.45 220.7 595.75 221 595.55C220.6 595.75 219.4 596.35 218.7 596.65C218.3 597.05 217.9 597.25 217.2 597.75Z" fill="#002E53"/>
<path fill-rule="evenodd" clip-rule="evenodd" d="M217.2 597.75C217.8 597.15 218.1 596.85 218.6 596.55C219.1 595.95 220 594.95 220.3 594.65C219.9 594.95 219 595.85 218.4 596.35C218.1 596.85 217.8 597.05 217.2 597.75Z" fill="#002E53"/>
<path fill-rule="evenodd" clip-rule="evenodd" d="M217.2 597.75C217.7 597.05 217.9 596.65 218.3 596.25C218.6 595.55 219.3 594.35 219.4 593.95C219.1 594.35 218.4 595.45 218 596.05C217.8 596.65 217.6 596.95 217.2 597.75Z" fill="#002E53"/>
<path fill-rule="evenodd" clip-rule="evenodd" d="M217.2 597.75C217.5 596.95 217.6 596.55 217.8 595.95C217.9 595.25 218.2 593.85 218.3 593.45C218.1 593.85 217.8 595.15 217.5 595.85C217.5 596.45 217.4 596.85 217.2 597.75Z" fill="#002E53"/>
<path d="M366.2 581.65H317.9V613.85H366.2V581.65Z" fill="#007552" stroke="black" stroke-width="0.2234" stroke-miterlimit="10"/>
<path d="M337.5 608.15C343.244 608.15 347.9 603.494 347.9 597.75C347.9 592.006 343.244 587.35 337.5 587.35C331.756 587.35 327.1 592.006 327.1 597.75C327.1 603.494 331.756 608.15 337.5 608.15Z" fill="#F52544"/>
<path d="M303.9 581.65H255.6V613.85H303.9V581.65Z" fill="#243F9C" stroke="black" stroke-width="0.1676" stroke-miterlimit="10"/>
<path d="M279.7 607.05L280.1 608.25H281.4L280.5 608.95L280.7 610.35L279.7 609.55L278.6 610.35L278.9 608.95L278 608.25H279.3L279.7 607.05Z" fill="#FCEC00"/>
<path d="M279.7 584.95L280.1 586.25H281.4L280.5 586.95L280.7 588.25L279.7 587.55L278.6 588.25L278.9 586.95L278 586.25H279.3L279.7 584.95Z" fill="#FCEC00"/>
<path d="M285 586.35L285.4 587.65H286.7L285.8 588.35L286.1 589.65L285 588.95L283.9 589.65L284.2 588.35L283.3 587.65H284.6L285 586.35Z" fill="#FCEC00"/>
<path d="M274.1 586.35L274.5 587.65H275.8L274.9 588.35L275.2 589.65L274.1 588.95L273 589.65L273.3 588.35L272.4 587.65H273.7L274.1 586.35Z" fill="#FCEC00"/>
<path d="M285 605.55L285.4 606.85H286.7L285.8 607.55L286.1 608.85L285 608.05L283.9 608.85L284.2 607.55L283.3 606.75H284.6L285 605.55Z" fill="#FCEC00"/>
<path d="M274.1 605.55L274.5 606.85H275.8L274.9 607.55L275.2 608.85L274.1 608.05L273 608.85L273.3 607.55L272.4 606.75H273.7L274.1 605.55Z" fill="#FCEC00"/>
<path d="M270 590.55L270.5 591.75H271.8L270.8 592.55L271.1 593.85L270 593.05L269 593.85L269.2 592.55L268.3 591.75H269.6L270 590.55Z" fill="#FCEC00"/>
<path d="M289.2 590.55L289.6 591.75H290.9L290 592.55L290.3 593.85L289.2 593.05L288.1 593.85L288.4 592.55L287.5 591.75H288.8L289.2 590.55Z" fill="#FCEC00"/>
<path d="M270 601.55L270.5 602.85H271.8L270.8 603.55L271.1 604.85L270 604.15L269 604.85L269.2 603.55L268.3 602.85H269.6L270 601.55Z" fill="#FCEC00"/>
<path d="M289.2 601.55L289.6 602.85H290.9L290 603.55L290.3 604.85L289.2 604.15L288.1 604.85L288.4 603.55L287.5 602.85H288.8L289.2 601.55Z" fill="#FCEC00"/>
<path d="M268.8 595.95L269.2 597.25H270.5L269.6 597.95L269.8 599.35L268.8 598.55L267.7 599.35L268 597.95L267 597.25H268.3L268.8 595.95Z" fill="#FCEC00"/>
<path d="M290.6 595.95L291 597.25H292.4L291.4 597.95L291.7 599.35L290.6 598.55L289.5 599.35L289.8 597.95L288.9 597.25H290.2L290.6 595.95Z" fill="#FCEC00"/>
<path fill-rule="evenodd" clip-rule="evenodd" d="M491.5 613.85H442.9V581.65H491.5V613.85Z" fill="white" stroke="black" stroke-width="0.2204" stroke-miterlimit="2.4142"/>
<path d="M491.3 581.75H451.7V613.65H491.3V581.75Z" fill="#003E15"/>
<path d="M454.2 581.75H443.1V613.65H454.2V581.75Z" fill="white" stroke="black" stroke-width="0.25" stroke-miterlimit="10"/>
<path d="M477.2 604.25C472.5 604.25 468.6 600.35 468.6 595.65C468.6 592.95 469.9 590.45 471.8 588.85C468.2 590.15 465.6 593.65 465.6 597.75C465.6 602.95 469.8 607.15 475 607.15C478.9 607.15 482.3 604.75 483.7 601.35C482 603.15 479.7 604.25 477.2 604.25Z" fill="white"/>
<path d="M482.3 595.15L480 594.65L478.8 596.75L478.6 594.35L476.3 593.85L478.5 592.95L478.2 590.55L479.7 592.35L481.9 591.35L480.7 593.45L482.3 595.15Z" fill="white"/>
<path fill-rule="evenodd" clip-rule="evenodd" d="M428.8 613.75H380.3V581.75H428.8V613.75Z" fill="white" stroke="black" stroke-width="0.2198" stroke-miterlimit="2.4142"/>
<path d="M428.7 581.85H380.4V592.65H428.7V581.85Z" fill="#ED1028"/>
<path d="M404.2 599.55L404.1 600.15L404.2 599.55Z" fill="white"/>
<path d="M402.1 601.35C402 601.35 402 601.45 402.1 601.35V601.35Z" fill="white"/>
<path d="M405 601.25L404.8 601.15L404.7 599.85V601.15L404.5 601.35L404.3 601.15L404.1 601.25L404 601.15L404.2 600.25L404 601.45H404.1C404.3 601.45 404.3 601.45 404.4 601.55C404.4 601.55 404.6 601.55 404.6 601.65H404.7C404.7 601.65 404.7 601.65 404.7 601.55C404.7 601.45 404.8 601.35 404.9 601.45C404.8 601.25 404.9 601.25 405 601.25C405.1 601.25 405.1 601.25 405.2 601.25L404.8 599.05L405.2 601.05L405 601.25Z" fill="white"/>
<path d="M407.1 601.45C407 601.35 407 601.35 406.9 601.35L407.1 601.45C407 601.45 407 601.35 407.1 601.45Z" fill="white"/>
<path d="M404.3 599.05L404.2 599.55L404.3 599.05Z" fill="white"/>
<path d="M380.4 592.65V603.15H428.7V592.65H380.4ZM408 601.45L406.2 599.65L406.6 601.15C406.7 601.15 406.8 601.15 406.9 601.05C407 601.05 407 601.05 407 601.05C407 601.05 407.1 601.05 407.2 601.15C407.3 601.25 407.2 601.35 407.2 601.45V601.55C407.3 601.55 407.3 601.55 407.4 601.75C407.5 601.85 407.6 601.85 407.6 601.85C407.5 601.85 407.5 601.95 407.5 602.05C407.4 602.15 407.3 602.25 407.3 602.25C407.3 602.35 407.4 602.55 407.1 602.65C406.8 602.75 406.6 602.85 404.6 602.85C404.5 602.85 404.5 602.85 404.4 602.85C402.6 602.85 402 602.65 401.9 602.55C401.8 602.55 401.8 602.25 401.8 602.25C401.7 602.25 401.6 601.95 401.6 601.95C401.6 601.85 401.5 601.85 401.5 601.85C401.6 601.85 401.7 601.75 401.7 601.65C401.8 601.55 401.8 601.55 401.9 601.55V601.45C401.9 601.35 401.8 601.25 401.9 601.15C402 601.05 402.1 601.05 402.1 601.05H402.2C402.3 601.05 402.4 601.05 402.5 601.15V601.05L402.9 599.55L402.7 599.75L402.6 599.95L401.1 601.55L401.3 595.35V595.25C401.4 594.65 401.6 594.65 401.9 594.65C402.2 594.65 402.7 594.95 403 595.15C403.1 595.25 403.2 595.25 403.3 595.25C403.5 595.25 403.6 595.25 403.6 595.25C403.9 594.75 404.1 594.05 404.1 593.95C404.1 593.85 404.1 593.85 404.1 593.75C404.1 593.75 404.1 593.75 404.1 593.65C404.1 593.65 404.1 593.65 404.1 593.55C404.1 593.55 404.1 593.45 404 593.45C403.9 593.35 403.8 593.45 403.7 593.45C403.7 593.35 403.6 593.25 403.7 593.05C403.7 592.95 403.9 592.95 404.1 592.95C404.2 592.95 404.3 592.95 404.3 592.95C404.3 592.95 404.3 592.85 404.4 592.85C404.4 592.85 404.4 592.85 404.5 592.85H404.6C404.6 592.85 404.6 592.85 404.7 592.85H404.8C404.8 592.85 404.9 592.85 404.9 592.95C404.9 592.95 404.9 592.95 405 593.05C405.1 593.15 405 593.15 405 593.15C405 593.25 405.1 593.25 405.1 593.35C405.1 593.55 405.1 593.65 405.1 593.65C405.1 594.45 405.2 594.85 405.4 595.05C405.6 595.05 405.8 595.05 406 594.95C406.3 594.85 406.5 594.65 406.9 594.55C407.4 594.35 407.8 594.65 407.8 594.95C407.8 594.95 407.8 595.05 407.8 595.15L408 601.15V601.45Z" fill="white"/>
<path d="M428.7 603.35H380.4V613.65H428.7V603.35Z" fill="black"/>
<path d="M428.7 603.15H380.4V603.35H428.7V603.15Z" fill="black"/>
<path d="M403.1 600.85L402.8 601.15C402.9 601.15 403.1 601.15 403.2 601.25L403.1 600.85Z" fill="white"/>
<path d="M405.9 597.35L406 598.85L406.2 599.35L406.1 596.95C406 597.05 405.9 597.15 405.9 597.35Z" fill="white"/>
<path d="M406 600.85L405.9 601.25C406 601.25 406.1 601.25 406.2 601.15L406 600.85Z" fill="white"/>
<path d="M405.6 600.95L405.5 601.25C405.6 601.25 405.7 601.25 405.8 601.25L405.6 600.95Z" fill="white"/>
<path d="M404.3 599.05C404.2 598.95 404.2 598.95 404.1 598.85L403.9 599.05C403.9 599.05 404.1 598.95 404.1 598.85C403.8 598.45 403.5 598.15 403.4 597.75V597.85C403.3 597.85 403.2 598.45 403.1 598.75L403.2 599.15L403.6 598.75V599.45L403.9 599.15L404 599.75H404.1L404.3 599.05Z" fill="white"/>
<path d="M406.2 599.55L406.1 599.25L405.9 598.75V598.85L405.8 599.15L405.4 598.75V599.45L405.1 599.05L404.9 598.95C404.8 599.05 404.8 599.05 404.7 599.15L405.1 601.35C405.2 601.35 405.3 601.35 405.4 601.35L405.5 601.05L405.7 601.35H405.8L405.9 600.95L406.1 601.25C406.2 601.25 406.3 601.25 406.4 601.15L406.2 599.55Z" fill="white"/>
<path d="M404.9 598.95L405.1 599.05L405.4 599.45V598.75L405.5 598.15C405.3 598.45 405.1 598.75 404.9 598.95Z" fill="white"/>
<path d="M405.7 598.05L405.9 598.65C405.8 598.35 405.7 598.15 405.7 598.05Z" fill="white"/>
<path d="M403.5 600.95L403.2 601.25C403.3 601.25 403.5 601.25 403.6 601.25L403.5 600.95Z" fill="white"/>
<path d="M403.1 596.65L403 599.45L403.2 598.95L403.3 597.35C403.1 596.95 403.1 596.75 403.1 596.65Z" fill="white"/>
<path d="M405.7 598.05C405.6 597.95 405.6 597.95 405.7 598.05C405.6 598.05 405.6 598.15 405.5 598.15L405.4 598.75L405.8 599.15L405.9 598.85C405.9 598.75 405.9 598.65 405.8 598.55L405.7 598.05Z" fill="white"/>
<path d="M407.6 600.95C407.6 600.95 407.6 600.85 407.6 600.65C407.6 600.55 407.6 600.45 407.6 600.35V600.25C407.6 600.15 407.6 600.15 407.6 600.05C407.6 599.95 407.6 599.95 407.6 599.85C407.6 599.75 407.6 599.75 407.6 599.65C407.6 599.55 407.6 599.35 407.6 599.25C407.6 599.15 407.6 599.15 407.6 599.05C407.6 598.55 407.6 598.05 407.5 597.55C407.5 597.45 407.5 597.35 407.5 597.35C407.5 597.25 407.5 597.15 407.5 597.15C407.5 597.05 407.5 596.95 407.5 596.75C407.5 596.55 407.5 596.45 407.5 596.25C407.5 596.15 407.5 596.05 407.5 595.95C407.5 595.75 407.5 595.65 407.5 595.45C407.5 595.35 407.5 595.25 407.5 595.15C407.5 594.85 407.5 594.75 407.5 594.75C407.6 594.75 407.8 594.95 407.8 594.95C407.8 594.85 407.8 594.75 407.8 594.75C407.8 594.45 407.4 594.15 406.9 594.35C406.6 594.45 406.4 594.65 406 594.75C405.8 594.85 405.6 594.85 405.4 594.85C405.5 594.95 405.5 595.05 405.5 595.05C405.3 595.15 405.1 594.95 405.1 594.95V595.15C404.8 595.25 404.7 594.95 404.7 594.95L404.5 595.25L404.3 594.95C404.2 595.05 403.9 595.25 403.9 595.25V594.95C403.6 595.15 403.5 595.05 403.5 595.05C403.6 594.95 403.6 594.95 403.6 594.85C403.6 594.85 403.5 594.85 403.3 594.85C403.2 594.85 403.1 594.85 403 594.75C402.7 594.55 402.2 594.25 401.9 594.25C401.6 594.25 401.4 594.25 401.3 594.85V594.95C401.4 594.85 401.6 594.75 401.6 594.75C401.7 594.75 401.4 600.75 401.4 600.75L401 601.15L402.5 599.55L402.7 595.65L403 595.85C403 595.75 403 595.75 403 595.75H403.1C403.9 595.85 404.5 595.25 404.5 595.25C404.7 595.55 405.3 595.75 405.9 595.75C405.9 595.75 405.9 595.75 405.9 595.85L406.1 595.75L406.2 598.05L406.3 599.65L406 599.35L407.8 601.25L407.6 600.95ZM402 600.45L401.6 600.85L401.8 595.05L402.1 595.45L402 600.45ZM402.5 599.95L402.2 600.25L402.4 595.55L402.7 595.75L402.5 599.95ZM406.5 599.95V598.65L406.4 595.75L406.7 595.55L406.8 599.45V600.25L406.5 599.95ZM407.1 600.45V599.85L406.9 595.45L407.2 595.05L407.4 600.45V600.85L407.1 600.45Z" fill="white"/>
<path d="M404.1 599.65L404 599.05L403.7 599.35V598.65L403.3 599.05L403.2 598.65C403.2 598.75 403.2 598.75 403.2 598.75V598.65L403.1 598.95L403 599.25V599.35L402.6 600.85V600.95C402.7 600.95 402.8 600.95 402.9 601.05L403.2 600.75L403.3 601.15C403.3 601.15 403.3 601.15 403.4 601.15L403.7 600.85L403.8 601.15C403.9 601.15 404 601.15 404.1 601.15L404.3 599.95L404.4 599.45L404.1 599.65Z" fill="white"/>
<path d="M404.3 592.75C404.2 592.85 404.2 592.85 404.3 592.75V592.75Z" fill="white"/>
<path d="M404.3 592.75C404.2 592.85 404.3 592.85 404.3 592.75ZM404.3 592.75C404.2 592.85 404.2 592.85 404.3 592.75Z" stroke="#CE9200" stroke-width="0.0300504" stroke-miterlimit="10"/>
<path d="M403.7 593.25C403.8 593.15 403.9 593.15 404 593.25C403.9 593.15 403.7 593.25 403.7 593.25Z" fill="white" stroke="#CE9200" stroke-width="0.0300504" stroke-miterlimit="10"/>
<path d="M404 595.15H404.4H404.8C404.8 594.85 404.8 594.05 404.8 594.05C404.8 594.05 404.8 594.95 404.8 595.15H405.2H405.4H405.5C405.4 594.95 405.2 594.55 405.2 593.75C405.2 593.75 405.4 592.95 404.7 592.85C404.6 592.85 404.5 592.85 404.5 592.85C404.6 592.85 404.9 592.95 405.1 593.05C405.2 593.25 405.2 593.25 405.2 593.25C405.2 593.25 405 593.05 404.8 593.15C404.6 593.25 404.6 593.35 404.6 593.25C404.6 593.15 404.4 593.05 404.3 592.95C404.2 592.85 403.9 592.75 403.8 593.05V593.15C403.8 593.15 403.8 592.85 404 592.85C404.1 592.85 404.2 592.85 404.2 592.85C404 592.85 403.9 592.85 403.8 592.95C403.7 593.15 403.8 593.25 403.8 593.35C403.8 593.15 403.9 593.05 404 593.05C404.2 593.05 404.5 593.45 404.5 593.45H404.3C404.3 593.45 404.2 593.65 404.2 593.55C404.2 593.55 404.2 593.55 404.2 593.45C404.2 593.55 404.3 593.65 404.3 593.75C404.3 593.85 404.2 594.55 403.8 595.05L404 595.15Z" fill="white"/>
<path d="M404 595.15C404.3 594.85 404.3 594.05 404.3 594.05M404 595.15H404.4M404 595.15L403.8 595.05C404.2 594.55 404.3 593.85 404.3 593.75C404.3 593.65 404.2 593.55 404.2 593.45C404.2 593.55 404.2 593.55 404.2 593.55C404.2 593.65 404.3 593.45 404.3 593.45H404.5C404.5 593.45 404.2 593.05 404 593.05C403.9 593.05 403.8 593.15 403.8 593.35C403.8 593.25 403.7 593.15 403.8 592.95C403.9 592.85 404 592.85 404.2 592.85C404.2 592.85 404.1 592.85 404 592.85C403.8 592.85 403.8 593.15 403.8 593.15V593.05C403.9 592.75 404.2 592.85 404.3 592.95C404.4 593.05 404.6 593.15 404.6 593.25C404.6 593.35 404.6 593.25 404.8 593.15C405 593.05 405.2 593.25 405.2 593.25C405.2 593.25 405.2 593.25 405.1 593.05C404.9 592.95 404.6 592.85 404.5 592.85C404.5 592.85 404.6 592.85 404.7 592.85C405.4 592.95 405.2 593.75 405.2 593.75C405.2 594.55 405.4 594.95 405.5 595.15H405.4H405.2M404.4 595.15C404.5 594.95 404.6 594.05 404.6 594.05M404.4 595.15H404.8M404.8 595.15C404.8 594.85 404.8 594.05 404.8 594.05C404.8 594.05 404.8 594.95 404.8 595.15ZM404.8 595.15H405.2M405.2 595.15C405 594.85 405 594.05 405 594.05" stroke="#CE9200" stroke-width="0.0300504" stroke-miterlimit="10"/>
<path d="M404.3 595.15L404.5 595.45C404.5 595.45 404.6 595.25 404.7 595.15C404.7 595.15 404.7 595.15 404.7 595.05L404.3 595.15Z" fill="white" stroke="#CE9200" stroke-width="0.0300504" stroke-miterlimit="10"/>
<path d="M405.1 595.15H404.7C404.7 595.15 404.7 595.15 404.7 595.25C404.8 595.25 404.9 595.55 405.1 595.45V595.15Z" fill="white" stroke="#CE9200" stroke-width="0.0300504" stroke-miterlimit="10"/>
<path d="M403.9 595.15V595.45C403.9 595.45 404.2 595.25 404.3 595.15H403.9H403.6C403.6 595.25 403.5 595.25 403.5 595.35C403.5 595.35 403.7 595.35 403.9 595.15Z" fill="white"/>
<path d="M403.9 595.15V595.45C403.9 595.45 404.2 595.25 404.3 595.15H403.9ZM403.9 595.15C404 595.15 404 595.15 403.9 595.15ZM403.9 595.15H403.6C403.6 595.25 403.5 595.25 403.5 595.35C403.5 595.35 403.7 595.35 403.9 595.15Z" stroke="#CE9200" stroke-width="0.0300504" stroke-miterlimit="10"/>
<path d="M405.1 595.15C405.2 595.25 405.4 595.35 405.6 595.35C405.6 595.35 405.6 595.35 405.5 595.15H405.4H405.1Z" fill="white" stroke="#CE9200" stroke-width="0.0300504" stroke-miterlimit="10"/>
<path d="M404 593.25C404 593.35 404.1 593.35 404.1 593.45C404 593.35 404 593.35 404 593.25Z" fill="#CE9200"/>
<path d="M404.2 593.45H404.4C404.4 593.45 404.1 593.05 403.9 593.05C403.8 593.05 403.7 593.15 403.7 593.35C403.8 593.25 403.9 593.25 404 593.35C404 593.45 404.1 593.45 404.1 593.55C404.1 593.65 404.1 593.65 404.1 593.65L404.2 593.45Z" fill="#CE9200"/>
<path d="M405 593.05C404.9 592.95 404.9 592.95 405 593.05L404.8 592.95C404.8 592.95 404.8 592.95 404.7 592.95C404.7 592.95 404.7 592.95 404.6 592.95H404.5H404.4L404.3 593.05C404.3 593.05 404.2 593.05 404.1 593.05C404 593.05 403.9 593.05 403.9 593.05C403.7 593.05 403.7 593.35 403.7 593.35V593.25C403.8 593.05 404 593.15 404.1 593.15H404.2C404.3 593.25 404.4 593.25 404.4 593.35C404.4 593.35 404.5 593.35 404.6 593.25C404.8 593.15 405 593.35 405 593.35C405 593.35 405.1 593.25 405 593.05ZM404.5 593.05C404.5 593.15 404.5 593.15 404.5 593.05C404.4 593.05 404.4 593.15 404.5 593.05C404.4 593.05 404.4 593.05 404.5 593.05Z" fill="#CE9200"/>
<path d="M404.5 593.15C404.5 593.05 404.6 593.05 404.5 593.15C404.4 593.05 404.4 593.05 404.5 593.15C404.4 593.15 404.4 593.15 404.5 593.15Z" fill="white"/>
<path d="M401.3 595.25L401 601.45C401.1 600.95 401.3 596.05 401.3 595.25Z" fill="#CE9200"/>
<path d="M401.4 601.05L401.6 595.05C401.6 595.05 401.4 595.15 401.3 595.25C401.3 596.05 401.1 600.95 401.1 601.45L401.4 601.05Z" fill="#CE9200"/>
<path d="M402 600.45L402.2 595.45L401.8 595.05L401.6 600.85L402 600.45Z" fill="#CE9200"/>
<path d="M402.6 595.85L402.3 595.55L402.2 600.35L402.5 599.95L402.6 595.85Z" fill="#CE9200"/>
<path d="M403 599.55V599.35L402.9 599.55H403Z" fill="#CE9200"/>
<path d="M403 599.35L403.1 596.55C403.1 596.35 403.1 596.15 403.1 596.05L402.8 595.85L402.6 599.75L402.7 599.65L402.9 599.45L403 599.35Z" fill="#CE9200"/>
<path d="M403.5 597.95C403.4 597.65 403.3 597.45 403.2 597.25L403.1 598.85V598.95C403.1 598.95 403.1 598.95 403.1 598.85C403.2 598.55 403.4 597.95 403.5 597.95Z" fill="#CE9200"/>
<path d="M408 601.45L407.8 595.25C407.8 596.25 408 600.95 408 601.45Z" fill="#CE9200"/>
<path d="M407.6 600.95L408 601.35C408 600.95 407.8 596.25 407.8 595.15C407.7 595.05 407.5 594.95 407.5 594.95C407.4 594.95 407.6 600.95 407.6 600.95Z" fill="#CE9200"/>
<path d="M407.4 600.85L407.2 595.05L406.9 595.45L407.1 600.45L407.4 600.85Z" fill="#CE9200"/>
<path d="M406.9 600.25L406.7 595.55L406.4 595.75L406.5 599.95L406.9 600.25Z" fill="#CE9200"/>
<path d="M406.1 599.55H406.2L406.1 599.45V599.55Z" fill="#CE9200"/>
<path d="M406 596.85L406.1 599.25V599.35V599.45L406.4 599.75L406.2 595.85L406 595.95C406.1 596.35 406 596.65 406 596.85Z" fill="#CE9200"/>
<path d="M405.6 597.85C405.7 598.05 405.7 598.35 405.8 598.55L405.9 598.85L405.8 597.35C405.8 597.55 405.7 597.75 405.6 597.85Z" fill="#CE9200"/>
<path d="M405.9 598.85L405.8 598.55C405.9 598.65 405.9 598.85 405.9 598.85Z" fill="#CE9200"/>
<path d="M404.6 599.25C404.5 599.25 404.5 599.25 404.6 599.25C404.5 599.15 404.4 599.15 404.3 599.05L404.2 599.55L404.1 600.05L403.9 600.95L404 601.05L404.2 600.95L404.4 601.15L404.6 600.95V599.65L404.7 600.95L404.9 601.05L405 600.95L404.6 598.95C404.7 599.15 404.6 599.25 404.6 599.25Z" fill="#CE9200"/>
<path d="M406 596.05C405.3 595.95 404.7 595.75 404.5 595.55C404.5 595.55 403.9 596.05 403.1 596.05H403C403 596.05 403 596.05 403 596.15V596.35V596.65C403 596.85 403.1 597.05 403.1 597.25V597.15L403.3 597.85C403.5 598.15 403.7 598.55 404 598.95C404.1 599.05 404.1 599.05 404.2 599.15H404.6C404.6 599.15 404.7 599.05 404.8 598.95C405 598.75 405.2 598.45 405.4 598.15C405.4 598.05 405.5 598.05 405.5 597.95L405.8 597.15V597.35C405.9 597.25 405.9 597.05 405.9 596.85L406 596.05ZM405.9 596.65C405.9 596.75 405.9 596.75 405.9 596.85V596.95C405.9 597.05 405.9 597.15 405.8 597.25C405.7 597.45 405.7 597.65 405.6 597.85C405.5 597.95 405.5 598.15 405.4 598.25C405.1 598.75 404.7 599.15 404.7 599.15H404.6L404.5 599.05C404.4 598.95 404.3 598.85 404.2 598.75L404.1 598.65C404.1 598.65 404.1 598.55 404 598.55C403.9 598.55 404 598.45 403.9 598.45C403.9 598.45 403.9 598.45 403.9 598.35C403.9 598.35 403.9 598.25 403.8 598.25L403.7 598.15C403.7 598.15 403.7 598.05 403.6 598.05C403.6 597.95 403.5 597.95 403.5 597.85C403.5 597.85 403.5 597.85 403.5 597.75V597.65C403.5 597.55 403.5 597.55 403.4 597.45C403.4 597.35 403.4 597.35 403.4 597.35V597.25C403.4 597.25 403.4 597.25 403.4 597.15V597.05C403.4 596.95 403.4 596.95 403.4 596.85C403.4 596.85 403.4 596.85 403.4 596.75C403.4 596.75 403.4 596.75 403.4 596.65C403.4 596.65 403.4 596.65 403.4 596.55V596.25C403.4 596.25 403.6 596.25 403.9 596.25C404.4 596.15 404.8 595.85 404.8 595.85C405 596.05 405.5 596.25 406.1 596.25C406.1 596.35 406.1 596.45 406.1 596.55C405.9 596.45 405.9 596.55 405.9 596.65Z" fill="white"/>
<path d="M404.6 599.15H404.2C404.1 599.05 404.1 599.05 404 598.95C403.7 598.55 403.5 598.15 403.3 597.85L403.1 597.15V597.25C403.1 597.05 403 596.85 403 596.65V596.35V596.15C403 596.05 403 596.05 403 596.05H403.1C403.9 596.05 404.5 595.55 404.5 595.55C404.7 595.75 405.3 595.95 406 596.05L405.9 596.85M404.6 599.15C404.6 599.15 404.7 599.05 404.8 598.95C405 598.75 405.2 598.45 405.4 598.15C405.4 598.05 405.5 598.05 405.5 597.95L405.8 597.15V597.35C405.9 597.25 405.9 597.05 405.9 596.85M404.6 599.15H404.7C404.7 599.15 405.1 598.75 405.4 598.25C405.5 598.15 405.5 597.95 405.6 597.85C405.7 597.65 405.7 597.45 405.8 597.25C405.9 597.15 405.9 597.05 405.9 596.95V596.85M404.6 599.15L404.5 599.05C404.4 598.95 404.3 598.85 404.2 598.75L404.1 598.65C404.1 598.65 404.1 598.55 404 598.55C403.9 598.55 404 598.45 403.9 598.45C403.9 598.45 403.9 598.45 403.9 598.35C403.9 598.35 403.9 598.25 403.8 598.25L403.7 598.15C403.7 598.15 403.7 598.05 403.6 598.05C403.6 597.95 403.5 597.95 403.5 597.85C403.5 597.85 403.5 597.85 403.5 597.75V597.65C403.5 597.55 403.5 597.55 403.4 597.45C403.4 597.35 403.4 597.35 403.4 597.35V597.25C403.4 597.25 403.4 597.25 403.4 597.15V597.05C403.4 596.95 403.4 596.95 403.4 596.85C403.4 596.85 403.4 596.85 403.4 596.75C403.4 596.75 403.4 596.75 403.4 596.65C403.4 596.65 403.4 596.65 403.4 596.55V596.25C403.4 596.25 403.6 596.25 403.9 596.25C404.4 596.15 404.8 595.85 404.8 595.85C405 596.05 405.5 596.25 406.1 596.25C406.1 596.35 406.1 596.45 406.1 596.55C405.9 596.45 405.9 596.55 405.9 596.65C405.9 596.75 405.9 596.75 405.9 596.85" stroke="#CE9200" stroke-width="0.0300504" stroke-miterlimit="10"/>
<path d="M403.1 596.65V596.15C403 596.15 403 596.35 403.1 596.65Z" fill="white" stroke="#CE9200" stroke-width="0.0300504" stroke-miterlimit="10"/>
<path d="M403.2 597.15C403.3 597.45 403.3 597.65 403.4 597.85L403.2 597.15Z" fill="white" stroke="#CE9200" stroke-width="0.0300504" stroke-miterlimit="10"/>
<path d="M406 596.85C406.1 596.55 406.1 596.25 406 596.05H405.9L406 596.85Z" fill="white" stroke="#CE9200" stroke-width="0.0300504" stroke-miterlimit="10"/>
<path d="M405.6 597.85C405.7 597.75 405.8 597.55 405.8 597.35V597.15L405.6 597.85Z" fill="white" stroke="#CE9200" stroke-width="0.0300504" stroke-miterlimit="10"/>
<path d="M404.5 599.25C404.6 599.25 404.7 599.15 404.8 599.05H404.4C404.4 599.15 404.4 599.25 404.5 599.25Z" fill="white" stroke="#CE9200" stroke-width="0.0300504" stroke-miterlimit="10"/>
<path d="M404 598.55C404.1 598.75 404.3 598.95 404.5 599.05C404.5 599.05 404.5 599.05 404.6 599.05C404.6 599.05 405 598.65 405.3 598.15C405.1 598.45 405 598.65 405 598.65V596.05C405.6 596.25 405.9 596.15 405.9 596.15C405.3 596.15 404.7 595.95 404.6 595.75C404.6 595.75 404.2 596.05 403.7 596.15C403.8 596.15 403.9 596.15 404.1 596.05V598.55H404Z" fill="white" stroke="#CE9200" stroke-width="0.0300504" stroke-miterlimit="10"/>
<path d="M405.9 596.85C405.9 596.65 406 596.35 405.9 596.15C405.9 596.45 405.9 596.65 405.9 596.85Z" fill="white" stroke="#CE9200" stroke-width="0.0300504" stroke-miterlimit="10"/>
<path d="M405.5 597.75C405.6 597.55 405.7 597.35 405.7 597.15C405.7 597.35 405.6 597.45 405.5 597.75C405.6 597.75 405.6 597.65 405.5 597.75Z" fill="white"/>
<path d="M405.5 597.75C405.6 597.55 405.7 597.35 405.7 597.15C405.7 597.35 405.6 597.45 405.5 597.75ZM405.5 597.75C405.6 597.65 405.6 597.75 405.5 597.75Z" stroke="#CE9200" stroke-width="0.0300504" stroke-miterlimit="10"/>
<path d="M403.9 598.35C403.7 598.05 403.3 597.35 403.2 596.55C403.2 596.95 403.4 597.65 403.9 598.35Z" fill="white" stroke="#CE9200" stroke-width="0.0300504" stroke-miterlimit="10"/>
<path d="M404 598.55C404 598.45 403.9 598.45 403.9 598.35C403.9 598.45 404 598.55 404 598.55Z" fill="#CE9200"/>
<path d="M403.2 596.55C403.3 597.35 403.7 598.05 403.9 598.35C403.9 598.45 404 598.45 404 598.55V596.05C403.9 596.15 403.8 596.15 403.6 596.15C403.5 596.15 403.3 596.15 403.1 596.15C403.2 596.15 403.2 596.25 403.2 596.55Z" fill="#CE9200"/>
<path d="M405.5 597.75C405.4 597.85 405.4 598.05 405.3 598.15C405.4 598.05 405.5 597.85 405.5 597.75Z" fill="#CE9200"/>
<path d="M405.9 596.85C405.9 596.95 405.9 597.05 405.8 597.15C405.8 597.05 405.8 596.95 405.9 596.85Z" fill="#CE9200"/>
<path d="M405 595.95V598.55C405 598.55 405.2 598.35 405.3 598.05C405.4 597.95 405.4 597.85 405.5 597.65C405.5 597.65 405.5 597.55 405.6 597.55C405.7 597.35 405.7 597.25 405.8 597.05C405.8 596.95 405.8 596.85 405.9 596.75C405.9 596.55 405.9 596.35 405.9 596.05C405.9 596.15 405.6 596.15 405 595.95Z" fill="#CE9200"/>
<path d="M402.9 602.05C403 602.05 403 602.15 402.9 602.05V602.05Z" fill="white" stroke="#CE9200" stroke-width="0.0601007" stroke-miterlimit="10"/>
<path d="M406.9 602.05C406.9 602.15 406.9 602.15 406.9 602.05C406.9 602.15 407 602.05 406.9 602.05Z" fill="white"/>
<path d="M406.9 602.05C406.9 602.15 406.9 602.15 406.9 602.05ZM406.9 602.05C406.9 602.15 407 602.05 406.9 602.05Z" stroke="#CE9200" stroke-width="0.0601007" stroke-miterlimit="10"/>
<path d="M407.4 601.75C407.3 601.65 407.3 601.55 407.2 601.55V601.65C407.2 601.65 407.2 601.55 407.1 601.45H407C407 601.45 407 601.45 406.9 601.45C406.7 601.55 406.4 601.55 406.2 601.55C406.2 601.55 406.2 601.55 406.1 601.55C406.1 601.65 406 601.85 406 601.85C406 601.85 405.9 601.65 405.8 601.55C405.5 601.55 405.2 601.65 405 601.55C405 601.55 405 601.65 404.9 601.65C404.8 601.75 404.7 601.85 404.7 601.85C404.7 601.85 404.6 601.65 404.6 601.55H404.5C404.5 601.65 404.4 601.95 404.4 601.95C404.4 601.95 404.3 601.85 404.2 601.75C404.1 601.75 404.1 601.65 404.1 601.65C404 601.65 403.9 601.65 403.7 601.65H403.6H403.5C403.4 601.65 403.3 601.65 403.3 601.65C403.3 601.75 403.1 601.95 403.1 601.95C403.1 601.95 403 601.75 403 601.65H402.9C402.6 601.65 402.1 601.55 402.1 601.45C402.1 601.45 402 601.45 402 601.55C401.9 601.65 401.9 601.75 401.9 601.75C401.9 601.75 401.8 601.75 401.7 601.85C401.6 601.95 401.5 601.95 401.5 602.05L401.6 602.15C401.6 602.25 401.7 602.45 401.8 602.45C401.8 602.45 401.8 602.65 401.9 602.75C402 602.75 402.6 602.95 404.4 603.05C404.5 603.05 404.5 603.05 404.6 603.05C406.6 603.05 406.8 602.95 407.1 602.85C407.4 602.75 407.4 602.65 407.3 602.45C407.3 602.45 407.4 602.35 407.5 602.25C407.6 602.15 407.6 602.05 407.6 602.05C407.6 601.95 407.5 601.85 407.4 601.75ZM402.3 602.05C402.3 602.05 402.2 602.05 402.1 602.05C402 602.05 402.2 601.95 402.2 601.95V601.85C402.2 601.85 402.2 601.85 402.2 601.95C402.3 601.95 402.3 602.05 402.3 602.05ZM402.4 602.25C402.3 602.25 402.3 602.25 402.4 602.25V602.25ZM402.5 601.85C402.5 601.95 402.6 601.85 402.5 601.85V601.85ZM402.5 602.35C402.6 602.35 402.6 602.35 402.5 602.35V602.35ZM402.9 602.15C402.9 602.05 402.9 602.05 402.9 602.15C403 602.05 403 602.15 402.9 602.15ZM403.3 602.25C403.3 602.25 403.2 602.25 403.1 602.25C403.1 602.25 403 602.25 403 602.15C402.9 602.15 403.2 601.95 403.2 601.95C403.2 601.95 403.4 602.15 403.3 602.25ZM404.8 602.45H404.6V602.35C404.6 602.35 404.6 602.35 404.7 602.35V602.25H404.8V602.45ZM404.9 602.15C405 602.15 405 602.15 404.9 602.15V602.15ZM405.1 602.65C405.1 602.55 405.1 602.55 405.1 602.65V602.65ZM405.2 602.65C405.2 602.55 405.3 602.55 405.2 602.65V602.65ZM406.2 602.45L405.9 602.35V602.45H405.8C405.8 602.45 405.8 602.45 405.7 602.45C405.6 602.45 405.8 602.25 405.8 602.25C405.8 602.25 405.8 602.25 405.9 602.25V602.45H406L406.1 602.35C406.1 602.25 406.1 602.15 406.1 602.15C406.1 602.15 406.2 602.15 406.2 602.05V601.85C406.2 601.85 406.2 601.85 406.2 601.95L406.3 602.05H406.4V602.15C406.4 602.45 406.3 602.45 406.2 602.45ZM406.5 601.85C406.4 601.75 406.6 601.85 406.5 601.85V601.85ZM406.8 602.35C406.8 602.25 406.9 602.25 406.8 602.35V602.35ZM406.9 602.15C406.9 602.05 407 602.05 406.9 602.15C407 602.05 407 602.15 406.9 602.15Z" fill="white"/>
<path d="M402.2 601.95C402.2 601.95 402 602.05 402.1 602.05C402.2 602.05 402.3 602.05 402.3 602.05C402.3 602.05 402.3 601.95 402.2 601.95ZM402.2 601.95V601.85C402.2 601.85 402.2 601.85 402.2 601.95ZM402.9 602.15C402.9 602.05 402.9 602.05 402.9 602.15ZM402.9 602.15C403 602.05 403 602.15 402.9 602.15ZM405.9 602.45V602.35L406.2 602.45C406.3 602.45 406.4 602.45 406.4 602.15V602.05H406.3L406.2 601.95C406.2 601.85 406.2 601.85 406.2 601.85V602.05C406.2 602.15 406.1 602.15 406.1 602.15C406.1 602.15 406.1 602.25 406.1 602.35L406 602.45H405.9ZM405.9 602.45H405.8M405.9 602.45V602.25C405.8 602.25 405.8 602.25 405.8 602.25C405.8 602.25 405.6 602.45 405.7 602.45C405.8 602.45 405.8 602.45 405.8 602.45M405.8 602.45L405.7 602.55M406.9 602.15C406.9 602.05 407 602.05 406.9 602.15ZM406.9 602.15C407 602.05 407 602.15 406.9 602.15ZM407.4 601.75C407.3 601.65 407.3 601.55 407.2 601.55V601.65C407.2 601.65 407.2 601.55 407.1 601.45H407C407 601.45 407 601.45 406.9 601.45C406.7 601.55 406.4 601.55 406.2 601.55C406.2 601.55 406.2 601.55 406.1 601.55C406.1 601.65 406 601.85 406 601.85C406 601.85 405.9 601.65 405.8 601.55C405.5 601.55 405.2 601.65 405 601.55C405 601.55 405 601.65 404.9 601.65C404.8 601.75 404.7 601.85 404.7 601.85C404.7 601.85 404.6 601.65 404.6 601.55H404.5C404.5 601.65 404.4 601.95 404.4 601.95C404.4 601.95 404.3 601.85 404.2 601.75C404.1 601.75 404.1 601.65 404.1 601.65C404 601.65 403.9 601.65 403.7 601.65H403.6H403.5C403.4 601.65 403.3 601.65 403.3 601.65C403.3 601.75 403.1 601.95 403.1 601.95C403.1 601.95 403 601.75 403 601.65H402.9C402.6 601.65 402.1 601.55 402.1 601.45C402.1 601.45 402 601.45 402 601.55C401.9 601.65 401.9 601.75 401.9 601.75C401.9 601.75 401.8 601.75 401.7 601.85C401.6 601.95 401.5 601.95 401.5 602.05L401.6 602.15C401.6 602.25 401.7 602.45 401.8 602.45C401.8 602.45 401.8 602.65 401.9 602.75C402 602.75 402.6 602.95 404.4 603.05C404.5 603.05 404.5 603.05 404.6 603.05C406.6 603.05 406.8 602.95 407.1 602.85C407.4 602.75 407.4 602.65 407.3 602.45C407.3 602.45 407.4 602.35 407.5 602.25C407.6 602.15 407.6 602.05 407.6 602.05C407.6 601.95 407.5 601.85 407.4 601.75ZM402.4 602.25C402.3 602.25 402.3 602.25 402.4 602.25ZM402.5 601.85C402.5 601.95 402.6 601.85 402.5 601.85ZM402.5 602.35C402.6 602.35 402.6 602.35 402.5 602.35ZM403.3 602.25C403.3 602.25 403.2 602.25 403.1 602.25C403.1 602.25 403 602.25 403 602.15C402.9 602.15 403.2 601.95 403.2 601.95C403.2 601.95 403.4 602.15 403.3 602.25ZM404.8 602.45H404.6V602.35C404.6 602.35 404.6 602.35 404.7 602.35V602.25H404.8V602.45ZM404.9 602.15C405 602.15 405 602.15 404.9 602.15ZM405.1 602.65C405.1 602.55 405.1 602.55 405.1 602.65ZM405.2 602.65C405.2 602.55 405.3 602.55 405.2 602.65ZM406.5 601.85C406.4 601.75 406.6 601.85 406.5 601.85ZM406.8 602.35C406.8 602.25 406.9 602.25 406.8 602.35Z" stroke="#CE9200" stroke-width="0.0601007" stroke-miterlimit="10"/>
<path d="M404.7 602.35L404.8 602.25C404.8 602.25 404.8 602.25 404.7 602.35C404.8 602.35 404.7 602.25 404.7 602.35Z" fill="white"/>
<path d="M404.7 602.35L404.8 602.25C404.8 602.25 404.8 602.25 404.7 602.35ZM404.7 602.35C404.7 602.25 404.8 602.35 404.7 602.35Z" stroke="#CE9200" stroke-width="0.0601007" stroke-miterlimit="10"/>
<path d="M402.3 601.95C402.3 602.05 402.3 602.05 402.3 601.95V601.95Z" fill="white" stroke="#CE9200" stroke-width="0.0601007" stroke-miterlimit="10"/>
<path d="M403.3 602.25C403.4 602.15 403.3 602.05 403.3 602.05C403.3 602.05 403 602.25 403.1 602.25C403.2 602.25 403.2 602.25 403.2 602.35C403.2 602.25 403.3 602.25 403.3 602.25Z" fill="white" stroke="#CE9200" stroke-width="0.0601007" stroke-miterlimit="10"/>
<path d="M406.8 602.35C406.8 602.25 406.9 602.25 406.8 602.35V602.35Z" fill="white" stroke="#CE9200" stroke-width="0.0601007" stroke-miterlimit="10"/>
<path d="M402.5 601.85C402.5 601.95 402.6 601.85 402.5 601.85V601.85Z" fill="white" stroke="#CE9200" stroke-width="0.0601007" stroke-miterlimit="10"/>
<path d="M402.3 601.85C402.3 601.95 402.3 601.95 402.3 601.85V601.85Z" fill="white" stroke="#CE9200" stroke-width="0.0601007" stroke-miterlimit="10"/>
<path d="M402 601.45C402.1 601.25 402 601.15 402.1 601.05C402.1 601.05 402 601.05 401.9 601.15C401.8 601.25 401.9 601.35 401.9 601.45C401.9 601.55 401.9 601.55 401.9 601.55C401.9 601.55 401.9 601.55 402 601.45Z" fill="white" stroke="#CE9200" stroke-width="0.0300504" stroke-miterlimit="10"/>
<path d="M402 601.45C401.9 601.55 401.9 601.55 401.9 601.65C401.9 601.65 401.9 601.55 402 601.45Z" fill="white" stroke="#CE9200" stroke-width="0.0300504" stroke-miterlimit="10"/>
<path d="M404.3 601.45C404.3 601.55 404.3 601.55 404.3 601.65C404.4 601.65 404.5 601.65 404.5 601.65C404.4 601.45 404.3 601.35 404.3 601.45Z" fill="white" stroke="#CE9200" stroke-width="0.0300504" stroke-miterlimit="10"/>
<path d="M404.1 601.65C404.3 601.85 404.4 601.95 404.4 601.95C404.4 601.95 404.5 601.75 404.5 601.55C404.4 601.55 404.3 601.55 404.1 601.65Z" fill="white" stroke="#CE9200" stroke-width="0.0300504" stroke-miterlimit="10"/>
<path d="M404 601.25C403.8 601.25 403.7 601.25 403.6 601.25H403.5H403.4C403.3 601.25 403.3 601.25 403.2 601.25C403 601.25 402.9 601.25 402.8 601.15C402.7 601.15 402.6 601.05 402.6 601.05C402.5 601.05 402.4 601.05 402.3 600.95C402.2 600.95 402.2 600.95 402.2 600.95C402.2 601.05 402.3 601.15 402.2 601.25H402.3C402.4 601.25 402.7 601.25 402.9 601.35H402.8C402.8 601.35 402.8 601.35 402.7 601.35C402.7 601.35 402.7 601.35 402.7 601.25C402.7 601.15 402.7 601.25 402.6 601.25C402.6 601.25 402.6 601.25 402.6 601.15H402.7H402.8H402.9V601.25H403C403 601.15 403.1 601.15 403.1 601.15C403.1 601.15 403.2 601.25 403.2 601.35C403.2 601.35 403.2 601.35 403.3 601.35C403.3 601.35 403.3 601.25 403.4 601.35H403.5C403.5 601.35 403.5 601.35 403.6 601.35C403.6 601.35 403.6 601.35 403.6 601.45C403.6 601.45 403.6 601.35 403.5 601.45C403.6 601.45 403.6 601.45 403.7 601.45H403.8V601.35H403.9C404 601.35 404.1 601.35 404.2 601.35L404.3 601.15C404.2 601.25 404.2 601.25 404 601.25ZM402.5 601.35C402.4 601.35 402.5 601.25 402.5 601.35C402.4 601.25 402.4 601.35 402.5 601.35L402.3 601.25V601.15H402.4C402.4 601.15 402.4 601.25 402.5 601.35C402.4 601.25 402.4 601.25 402.5 601.35Z" fill="white"/>
<path d="M402.8 601.15C402.9 601.25 403 601.25 403.2 601.25C403.3 601.25 403.3 601.25 403.4 601.25H403.5H403.6C403.7 601.25 403.8 601.25 404 601.25C404.2 601.25 404.2 601.25 404.3 601.15L404.2 601.35C404.1 601.35 404 601.35 403.9 601.35M402.8 601.15C402.7 601.15 402.6 601.05 402.6 601.05C402.5 601.05 402.4 601.05 402.3 600.95C402.2 600.95 402.2 600.95 402.2 600.95C402.2 601.05 402.3 601.15 402.2 601.25H402.3M402.8 601.15H402.7H402.6C402.6 601.25 402.6 601.25 402.6 601.25C402.7 601.25 402.7 601.15 402.7 601.25C402.7 601.35 402.7 601.35 402.7 601.35C402.8 601.35 402.8 601.35 402.8 601.35H402.9C402.7 601.25 402.4 601.25 402.3 601.25M402.8 601.15H402.9V601.25H403C403 601.15 403.1 601.15 403.1 601.15C403.1 601.15 403.2 601.25 403.2 601.35C403.2 601.35 403.2 601.35 403.3 601.35C403.3 601.35 403.3 601.25 403.4 601.35H403.5C403.5 601.35 403.5 601.35 403.6 601.35C403.6 601.35 403.6 601.35 403.6 601.45C403.6 601.45 403.6 601.35 403.5 601.45C403.6 601.45 403.6 601.45 403.7 601.45H403.8V601.35H403.9M402.3 601.25L402.5 601.35M402.3 601.25V601.15H402.4C402.4 601.15 402.4 601.25 402.5 601.35M403.9 601.35H404H404.1M402.5 601.35C402.4 601.35 402.5 601.25 402.5 601.35ZM402.5 601.35C402.4 601.25 402.4 601.35 402.5 601.35ZM402.5 601.35C402.4 601.25 402.4 601.25 402.5 601.35Z" stroke="#CE9200" stroke-width="0.0300504" stroke-miterlimit="10"/>
<path d="M402.8 601.15C402.9 601.25 403 601.25 403.2 601.25C403 601.25 402.9 601.15 402.8 601.15Z" fill="white" stroke="#CE9200" stroke-width="0.0300504" stroke-miterlimit="10"/>
<path d="M402.7 601.15C402.6 601.05 402.6 601.05 402.5 601.05C402.5 601.15 402.6 601.15 402.7 601.15Z" fill="white" stroke="#CE9200" stroke-width="0.0300504" stroke-miterlimit="10"/>
<path d="M403.6 601.25C403.5 601.25 403.4 601.15 403.2 601.15C403.4 601.15 403.7 601.15 403.9 601.15C403.8 601.25 403.7 601.25 403.6 601.25Z" fill="white" stroke="#CE9200" stroke-width="0.0300504" stroke-miterlimit="10"/>
<path d="M403.1 601.45C402.7 601.45 402.5 601.35 402.4 601.35H402.3C402.4 601.45 402.9 601.55 403.1 601.55C403.1 601.55 403.1 601.55 403.2 601.55C403 601.55 403 601.45 403.1 601.45Z" fill="white" stroke="#CE9200" stroke-width="0.0300504" stroke-miterlimit="10"/>
<path d="M404.1 601.55C404 601.55 403.9 601.55 403.8 601.55H403.7C403.6 601.55 403.5 601.55 403.4 601.55H403.3C403.3 601.55 403.3 601.55 403.2 601.55V601.65C403.2 601.65 403.2 601.65 403.2 601.75C403.6 601.65 403.9 601.75 404.1 601.55C404.1 601.65 404.1 601.65 404.1 601.55Z" fill="white"/>
<path d="M404.1 601.55C404 601.55 403.9 601.55 403.8 601.55H403.7C403.6 601.55 403.5 601.55 403.4 601.55H403.3C403.3 601.55 403.3 601.55 403.2 601.55V601.65C403.2 601.65 403.2 601.65 403.2 601.75C403.6 601.65 403.9 601.75 404.1 601.55ZM404.1 601.55C404.1 601.65 404.1 601.65 404.1 601.55Z" stroke="#CE9200" stroke-width="0.0300504" stroke-miterlimit="10"/>
<path d="M402.1 601.35C402.2 601.25 402.1 601.15 402.1 601.05C402.1 601.15 402.1 601.35 402.1 601.35Z" fill="white" stroke="#CE9200" stroke-width="0.0300504" stroke-miterlimit="10"/>
<path d="M404.3 601.45C404.3 601.45 404.2 601.55 404.2 601.65C404.2 601.65 404.2 601.65 404.3 601.65C404.3 601.55 404.3 601.45 404.3 601.45Z" fill="white" stroke="#CE9200" stroke-width="0.0300504" stroke-miterlimit="10"/>
<path d="M404.2 601.55C404.1 601.55 404.1 601.55 404.2 601.55C404.1 601.55 404.1 601.65 404.2 601.55C404.2 601.65 404.1 601.65 404.2 601.55Z" fill="white"/>
<path d="M404.2 601.55C404.1 601.55 404.1 601.55 404.2 601.55ZM404.2 601.55C404.1 601.55 404.1 601.65 404.2 601.55ZM404.2 601.55C404.1 601.65 404.2 601.65 404.2 601.55Z" stroke="#CE9200" stroke-width="0.0300504" stroke-miterlimit="10"/>
<path d="M403 601.55C403 601.65 403.1 601.85 403.1 601.85C403.1 601.85 403.2 601.65 403.3 601.55C403.2 601.55 403.1 601.55 403 601.55Z" fill="white" stroke="#CE9200" stroke-width="0.0300504" stroke-miterlimit="10"/>
<path d="M403.2 601.35C403.2 601.45 403.3 601.45 403.4 601.45C403.3 601.45 403.2 601.35 403.2 601.35Z" fill="white" stroke="#CE9200" stroke-width="0.0300504" stroke-miterlimit="10"/>
<path d="M403.3 601.45C403.2 601.45 403.1 601.45 403 601.45V601.55C403.1 601.55 403.2 601.55 403.3 601.45Z" fill="white"/>
<path d="M403.3 601.45C403.2 601.45 403.1 601.45 403 601.45V601.55C403.1 601.55 403.2 601.55 403.3 601.45ZM403.3 601.45C403.3 601.55 403.3 601.55 403.3 601.45Z" stroke="#CE9200" stroke-width="0.0300504" stroke-miterlimit="10"/>
<path d="M402.3 601.25C402.4 601.25 402.4 601.35 402.3 601.25C402.4 601.35 402.4 601.25 402.5 601.35C402.5 601.35 402.5 601.35 402.3 601.25C402.4 601.25 402.4 601.15 402.3 601.25C402.3 601.15 402.2 601.15 402.3 601.25C402.2 601.25 402.2 601.15 402.3 601.25Z" fill="#CE9200"/>
<path d="M402.9 601.45C402.8 601.35 402.9 601.35 402.9 601.45L402.7 601.35C402.7 601.35 402.6 601.25 402.6 601.35C402.6 601.35 402.6 601.35 402.6 601.45C402.6 601.45 402.6 601.45 402.7 601.45V601.55C402.7 601.55 402.7 601.55 402.9 601.45C402.8 601.35 402.8 601.35 402.9 601.45Z" fill="#CE9200"/>
<path d="M403.6 601.45C403.7 601.45 403.7 601.55 403.6 601.45C403.7 601.45 403.7 601.45 403.6 601.45C403.6 601.35 403.5 601.45 403.6 601.45C403.5 601.45 403.5 601.45 403.6 601.45H403.4C403.4 601.45 403.5 601.55 403.6 601.45C403.5 601.45 403.5 601.45 403.6 601.45Z" fill="#CE9200"/>
<path d="M403.9 601.55C403.9 601.45 404 601.45 403.9 601.55C403.8 601.45 403.9 601.45 403.9 601.55C403.8 601.55 403.8 601.45 403.9 601.55Z" fill="#CE9200"/>
<path d="M406.9 601.35C407 601.35 407 601.45 406.9 601.35C407.1 601.45 407.1 601.55 407.1 601.55V601.45C407.1 601.35 407.2 601.25 407.1 601.15C407 601.05 406.9 601.05 406.9 601.05C407 601.15 407 601.25 406.9 601.35Z" fill="white"/>
<path d="M406.9 601.35C407 601.35 407 601.45 406.9 601.35ZM406.9 601.35C407.1 601.45 407.1 601.55 407.1 601.55V601.45C407.1 601.35 407.2 601.25 407.1 601.15C407 601.05 406.9 601.05 406.9 601.05C407 601.15 407 601.25 406.9 601.35Z" stroke="#CE9200" stroke-width="0.0300504" stroke-miterlimit="10"/>
<path d="M407.1 601.45C407.2 601.55 407.2 601.65 407.2 601.65C407.2 601.65 407.2 601.65 407.2 601.55C407.1 601.55 407.1 601.45 407.1 601.45Z" fill="white" stroke="#CE9200" stroke-width="0.0300504" stroke-miterlimit="10"/>
<path d="M404.8 601.35C404.8 601.35 404.6 601.35 404.6 601.45C404.6 601.45 404.6 601.45 404.6 601.55C404.7 601.55 404.8 601.55 404.9 601.55C404.8 601.55 404.8 601.45 404.8 601.35Z" fill="white" stroke="#CE9200" stroke-width="0.0300504" stroke-miterlimit="10"/>
<path d="M404.6 601.55C404.6 601.65 404.7 601.85 404.7 601.85C404.7 601.85 404.8 601.75 404.9 601.65C405 601.65 405 601.55 405 601.55C405 601.55 405 601.55 404.9 601.55C404.8 601.55 404.7 601.55 404.6 601.55Z" fill="white" stroke="#CE9200" stroke-width="0.0300504" stroke-miterlimit="10"/>
<path d="M406.9 601.05C406.7 601.05 406.6 601.05 406.5 601.15C406.3 601.25 406.1 601.35 405.8 601.35C405.8 601.35 405.9 601.45 405.9 601.55C406.3 601.55 406.6 601.45 406.7 601.45H406.8C406.8 601.25 406.9 601.15 406.9 601.05ZM406.4 601.25L406.2 601.35V601.25H406.4ZM406.8 601.25C406.7 601.15 406.7 601.25 406.8 601.25C406.7 601.25 406.7 601.35 406.8 601.25C406.7 601.35 406.7 601.25 406.6 601.35C406.6 601.35 406.6 601.35 406.8 601.25C406.7 601.15 406.7 601.15 406.8 601.25C406.8 601.15 406.7 601.15 406.8 601.25Z" fill="white"/>
<path d="M406.4 601.25C406.3 601.35 406.3 601.35 406.4 601.25ZM406.4 601.25L406.2 601.35V601.25H406.4ZM406.8 601.25C406.7 601.15 406.7 601.25 406.8 601.25ZM406.8 601.25C406.7 601.25 406.7 601.35 406.8 601.25ZM406.8 601.25C406.7 601.35 406.7 601.25 406.6 601.35M406.8 601.25C406.6 601.35 406.6 601.35 406.6 601.35M406.8 601.25C406.7 601.15 406.7 601.15 406.8 601.25ZM406.8 601.25C406.7 601.15 406.8 601.15 406.8 601.25ZM406.6 601.35V601.45M406.9 601.05C406.7 601.05 406.6 601.05 406.5 601.15C406.3 601.25 406.1 601.35 405.8 601.35C405.8 601.35 405.9 601.45 405.9 601.55C406.3 601.55 406.6 601.45 406.7 601.45H406.8C406.8 601.25 406.9 601.15 406.9 601.05Z" stroke="#CE9200" stroke-width="0.0300504" stroke-miterlimit="10"/>
<path d="M405.5 601.35C405.4 601.35 405.4 601.35 405.3 601.35C405.2 601.35 405.2 601.35 405.2 601.35H405.1C404.9 601.35 404.9 601.35 404.8 601.45L404.9 601.65C405.2 601.65 405.4 601.65 405.7 601.55C405.7 601.45 405.8 601.35 405.8 601.35C405.7 601.35 405.6 601.35 405.5 601.35ZM405.2 601.55C405.1 601.55 405.1 601.45 405 601.55C405.1 601.45 405.1 601.45 405.2 601.55C405.2 601.45 405.2 601.45 405.2 601.55C405.3 601.55 405.3 601.45 405.2 601.55ZM405.6 601.55C405.5 601.45 405.5 601.55 405.6 601.55C405.5 601.45 405.5 601.45 405.4 601.55H405.3V601.45C405.4 601.35 405.5 601.35 405.6 601.55C405.6 601.45 405.6 601.45 405.6 601.55C405.7 601.45 405.7 601.45 405.6 601.55C405.7 601.45 405.6 601.45 405.6 601.55Z" fill="white"/>
<path d="M405.2 601.55C405.1 601.55 405.1 601.45 405 601.55M405.2 601.55C405.1 601.45 405.1 601.45 405 601.55M405.2 601.55C405.2 601.45 405.2 601.45 405.2 601.55ZM405.2 601.55C405.3 601.45 405.3 601.55 405.2 601.55ZM405 601.55H404.9M405.6 601.55C405.5 601.45 405.5 601.55 405.6 601.55ZM405.6 601.55C405.5 601.45 405.5 601.45 405.4 601.55H405.3V601.45C405.4 601.35 405.5 601.35 405.6 601.55ZM405.6 601.55C405.6 601.45 405.6 601.45 405.6 601.55ZM405.6 601.55C405.7 601.45 405.7 601.45 405.6 601.55ZM405.6 601.55C405.6 601.45 405.7 601.45 405.6 601.55ZM405.5 601.35C405.4 601.35 405.4 601.35 405.3 601.35C405.2 601.35 405.2 601.35 405.2 601.35H405.1C404.9 601.35 404.9 601.35 404.8 601.45L404.9 601.65C405.2 601.65 405.4 601.65 405.7 601.55C405.7 601.45 405.8 601.35 405.8 601.35C405.7 601.35 405.6 601.35 405.5 601.35Z" stroke="#CE9200" stroke-width="0.0300504" stroke-miterlimit="10"/>
<path d="M406.3 601.25C406.1 601.25 406 601.25 405.9 601.25V601.35C406.1 601.35 406.4 601.25 406.6 601.15C406.4 601.15 406.3 601.15 406.3 601.25Z" fill="white" stroke="#CE9200" stroke-width="0.0300504" stroke-miterlimit="10"/>
<path d="M405.8 601.35C405.9 601.25 405.9 601.25 405.8 601.35C405.8 601.25 405.9 601.25 405.8 601.35C405.6 601.25 405.5 601.25 405.5 601.25C405.4 601.25 405.2 601.25 405.2 601.25C405.2 601.25 405.5 601.35 405.8 601.35Z" fill="white"/>
<path d="M405.8 601.35C405.9 601.25 405.9 601.25 405.8 601.35ZM405.8 601.35C405.8 601.25 405.9 601.25 405.8 601.35ZM405.8 601.35C405.6 601.25 405.5 601.25 405.5 601.25M405.8 601.35C405.5 601.35 405.2 601.25 405.2 601.25C405.2 601.25 405.4 601.25 405.5 601.25M405.5 601.25V601.35" stroke="#CE9200" stroke-width="0.0300504" stroke-miterlimit="10"/>
<path d="M406 601.55C406.1 601.55 406.1 601.55 406 601.55C406.3 601.55 406.6 601.45 406.8 601.45C406.7 601.45 406.4 601.45 406 601.55Z" fill="white"/>
<path d="M406 601.55C406.1 601.55 406.1 601.55 406 601.55ZM406 601.55C406.3 601.55 406.6 601.45 406.8 601.45C406.7 601.45 406.4 601.45 406 601.55Z" stroke="#CE9200" stroke-width="0.0300504" stroke-miterlimit="10"/>
<path d="M405.7 601.55C405.4 601.55 405.1 601.55 404.9 601.65C404.9 601.65 404.9 601.65 404.9 601.75C405.1 601.65 405.5 601.65 405.7 601.55Z" fill="white" stroke="#CE9200" stroke-width="0.0300504" stroke-miterlimit="10"/>
<path d="M406.9 601.35C406.9 601.25 407 601.15 406.9 601.05C406.9 601.15 406.8 601.25 406.9 601.35Z" fill="white" stroke="#CE9200" stroke-width="0.0300504" stroke-miterlimit="10"/>
<path d="M404.8 601.55C404.9 601.55 404.8 601.35 404.7 601.35C404.8 601.45 404.8 601.55 404.8 601.55Z" fill="white"/>
<path d="M404.8 601.55C404.9 601.55 404.9 601.55 404.8 601.55ZM404.8 601.55C404.9 601.55 404.8 601.35 404.7 601.35C404.8 601.45 404.8 601.55 404.8 601.55Z" stroke="#CE9200" stroke-width="0.0300504" stroke-miterlimit="10"/>
<path d="M404.9 601.55C404.9 601.65 404.9 601.65 404.9 601.55V601.55Z" fill="white" stroke="#CE9200" stroke-width="0.0300504" stroke-miterlimit="10"/>
<path d="M405.9 601.85C405.9 601.85 406 601.65 406 601.55C405.9 601.55 405.8 601.55 405.7 601.55C405.8 601.65 405.9 601.85 405.9 601.85Z" fill="white" stroke="#CE9200" stroke-width="0.0300504" stroke-miterlimit="10"/>
<path d="M405.9 601.35C405.8 601.35 405.8 601.45 405.8 601.55C405.9 601.55 406 601.55 406.1 601.55C406 601.35 405.9 601.35 405.9 601.35Z" fill="white" stroke="#CE9200" stroke-width="0.0300504" stroke-miterlimit="10"/>
<path d="M405.9 601.35C405.9 601.25 405.9 601.25 405.9 601.35V601.35Z" fill="white" stroke="#CE9200" stroke-width="0.0300504" stroke-miterlimit="10"/>
<path d="M405.7 601.55C405.8 601.55 405.9 601.55 406 601.55C406 601.55 406 601.55 406 601.45C405.9 601.45 405.8 601.55 405.7 601.55Z" fill="white" stroke="#CE9200" stroke-width="0.0300504" stroke-miterlimit="10"/>
<path d="M406.6 601.25C406.7 601.25 406.7 601.25 406.6 601.25H406.8V601.15L406.6 601.25C406.7 601.15 406.7 601.15 406.6 601.25Z" fill="#CE9200"/>
<path d="M406.4 601.25H406.2H406.1V601.35H406.2C406.2 601.35 406.2 601.35 406.4 601.25C406.3 601.35 406.3 601.35 406.4 601.25Z" fill="#CE9200"/>
<path d="M405.4 601.45C405.5 601.45 405.5 601.45 405.6 601.45H405.7C405.7 601.45 405.7 601.35 405.6 601.45H405.5H405.4Z" fill="#CE9200"/>
<path d="M404.9 601.45C404.9 601.55 405 601.55 404.9 601.45C405 601.35 405.1 601.45 405.1 601.45H405.2V601.35H405.1C405.1 601.45 405.1 601.45 404.9 601.45Z" fill="#CE9200"/>
<path d="M402.4 602.25C402.3 602.25 402.3 602.25 402.4 602.25V602.25Z" fill="white" stroke="#CE9200" stroke-width="0.0601007" stroke-miterlimit="10"/>
<path d="M402.5 602.35C402.6 602.35 402.6 602.35 402.5 602.35V602.35Z" fill="white" stroke="#CE9200" stroke-width="0.0601007" stroke-miterlimit="10"/>
<path d="M405.1 602.65C405.1 602.55 405.1 602.55 405.1 602.65V602.65Z" fill="white" stroke="#CE9200" stroke-width="0.0601007" stroke-miterlimit="10"/>
<path d="M405.2 602.65C405.2 602.55 405.3 602.55 405.2 602.65V602.65Z" fill="white" stroke="#CE9200" stroke-width="0.0601007" stroke-miterlimit="10"/>
<path d="M406.3 602.25C406.2 602.15 406.3 602.15 406.3 602.25L406.1 602.15C406.1 602.15 406 602.15 406 602.05V601.95C406 601.95 406 602.05 406 602.15C406 602.15 406 602.25 405.9 602.25C405.9 602.25 405.9 602.35 405.9 602.45H406.1C406.1 602.45 406.1 602.55 406.2 602.55C406.3 602.45 406.4 602.45 406.3 602.25Z" fill="white"/>
<path d="M406.3 602.25C406.2 602.15 406.3 602.15 406.3 602.25ZM406.3 602.25L406.1 602.15C406.1 602.15 406 602.15 406 602.05V601.95C406 601.95 406 602.05 406 602.15C406 602.15 406 602.25 405.9 602.25C405.9 602.25 405.9 602.35 405.9 602.45H406.1C406.1 602.45 406.1 602.55 406.2 602.55C406.3 602.45 406.4 602.45 406.3 602.25Z" stroke="#CE9200" stroke-width="0.0601007" stroke-miterlimit="10"/>
<path d="M405.9 602.15C405.8 602.15 405.8 602.15 405.9 602.15C405.8 602.15 405.7 602.35 405.8 602.35C405.9 602.35 405.9 602.35 405.9 602.35H405.8L405.9 602.15Z" fill="white"/>
<path d="M405.9 602.15C405.8 602.15 405.8 602.15 405.9 602.15ZM405.9 602.15C405.8 602.15 405.7 602.35 405.8 602.35M405.9 602.15L405.8 602.35M405.8 602.35C405.9 602.35 405.9 602.35 405.9 602.35M405.8 602.35H405.9M405.9 602.35L405.8 602.45" stroke="#CE9200" stroke-width="0.0601007" stroke-miterlimit="10"/>
<path d="M111.066 661.729H104.099L93.8647 616.908H101.078L108.291 652.913L108.476 655.009L109.154 652.975L125.184 616.908H132.151L111.066 661.729ZM144.419 616.908L138.932 661.729H132.397L137.884 616.908H144.419ZM151.092 634.479L151.647 629.855H173.657L173.348 632.568L156.764 653.961C156.435 654.331 156.147 654.701 155.901 655.071C155.654 655.441 155.387 655.79 155.099 656.119L154.051 657.167L155.407 656.982H170.636L170.081 661.729H145.851L146.16 659.017L164.532 635.342L165.58 634.294L164.285 634.479H151.092ZM199.981 634.849C199.077 634.603 198.234 634.438 197.453 634.356C196.672 634.233 195.891 634.171 195.11 634.171C192.11 634.171 189.582 635.24 187.527 637.377C185.513 639.473 184.28 642.432 183.828 646.255C183.623 647.776 183.582 649.214 183.705 650.57C183.828 651.927 184.116 653.098 184.568 654.085C185.061 655.071 185.739 655.831 186.603 656.366C187.507 656.9 188.616 657.064 189.932 656.859C191.781 656.612 193.364 657.475 194.679 659.448C193.569 660.188 192.439 660.784 191.288 661.236C190.137 661.688 189.089 661.956 188.144 662.038C186.294 662.284 184.609 662.038 183.088 661.298C181.568 660.517 180.293 659.407 179.266 657.969C178.279 656.53 177.56 654.804 177.108 652.79C176.656 650.735 176.574 648.556 176.861 646.255C177.149 643.748 177.827 641.467 178.896 639.411C179.965 637.315 181.321 635.507 182.965 633.986C184.609 632.465 186.5 631.294 188.637 630.472C190.815 629.609 193.158 629.177 195.665 629.177C197.392 629.177 199.097 629.321 200.782 629.609C202.509 629.896 204.523 630.41 206.824 631.15L204.358 650.57C204.071 652.913 203.886 654.948 203.803 656.674C203.721 658.4 203.783 659.983 203.988 661.421L199.118 661.729C198.666 661.318 198.214 660.558 197.762 659.448C197.351 658.298 197.248 656.941 197.453 655.379L199.981 634.849ZM255.067 617.525H262.342L266.966 652.297L267.213 655.441L268.076 652.42L281.331 616.908H287.866L270.172 661.729H262.774L257.903 627.389L257.657 624.8L256.855 627.266L243.662 661.729H236.017L229.297 616.908H235.955L240.517 652.297L240.641 655.441L241.689 652.297L255.067 617.525ZM292.805 645.762C292.599 647.488 292.599 649.07 292.805 650.509C293.01 651.906 293.4 653.119 293.976 654.146C294.592 655.174 295.373 655.975 296.319 656.551C297.305 657.126 298.456 657.414 299.771 657.414C301.169 657.414 302.422 657.106 303.532 656.489C304.683 655.873 305.669 655.03 306.491 653.961C307.313 652.893 307.971 651.66 308.464 650.262C308.957 648.865 309.307 647.365 309.512 645.762C309.964 641.98 309.512 639.103 308.156 637.13C306.841 635.157 304.991 634.171 302.607 634.171C301.415 634.171 300.285 634.418 299.216 634.911C298.148 635.404 297.161 636.144 296.257 637.13C295.394 638.117 294.654 639.329 294.038 640.768C293.462 642.206 293.051 643.871 292.805 645.762ZM285.838 645.762C286.208 642.926 286.968 640.48 288.119 638.425C289.311 636.329 290.708 634.603 292.311 633.246C293.955 631.849 295.723 630.821 297.613 630.164C299.545 629.506 301.415 629.177 303.224 629.177C305.608 629.177 307.683 629.609 309.451 630.472C311.259 631.294 312.739 632.445 313.89 633.924C315.04 635.404 315.842 637.171 316.294 639.226C316.746 641.24 316.828 643.419 316.541 645.762C316.212 648.433 315.492 650.797 314.383 652.852C313.314 654.907 311.978 656.653 310.375 658.092C308.772 659.489 307.005 660.558 305.073 661.298C303.142 662.038 301.169 662.408 299.155 662.408C297.058 662.408 295.127 662.058 293.359 661.36C291.592 660.62 290.092 659.551 288.859 658.154C287.626 656.715 286.721 654.968 286.146 652.913C285.612 650.817 285.509 648.433 285.838 645.762ZM324.683 630.164L329.677 629.855C330.17 630.431 330.499 631.129 330.664 631.952C330.869 632.774 331.013 633.678 331.095 634.664L330.972 635.897L331.65 634.664C332.678 633.102 333.972 631.828 335.534 630.842C337.096 629.855 338.658 629.362 340.22 629.362C341.206 629.362 342.295 629.547 343.487 629.917L342.008 635.342C340.734 635.055 339.706 634.911 338.925 634.911C337.939 634.911 336.952 635.137 335.966 635.589C335.02 636 334.137 636.637 333.315 637.5C332.534 638.363 331.835 639.453 331.219 640.768C330.643 642.042 330.253 643.563 330.047 645.33L328.074 661.729H321.847L324.375 640.768C324.581 639 324.725 637.192 324.807 635.342C324.93 633.493 324.889 631.767 324.683 630.164ZM376.718 630.287L365.559 641.014L375.115 661.729H367.717L362.106 648.104L360.997 645.33L355.818 650.509C355.571 649.029 355.674 647.426 356.126 645.7C356.619 643.974 357.503 642.391 358.777 640.953C359.229 640.418 359.681 639.925 360.133 639.473C360.586 638.98 361.038 638.487 361.49 637.993L369.443 629.855L376.718 630.287ZM357.051 615.429L351.379 661.729H344.844L350.577 614.997L357.051 615.429ZM412.196 616.908H418.792L429.458 661.729H422.307L414.538 626.403L414.354 624.492L413.614 626.464L404.921 645.145L404.058 646.378L404.797 646.255H412.072C412.853 646.255 413.511 646.399 414.045 646.686C414.621 646.974 415.093 647.365 415.463 647.858C415.874 648.31 416.203 648.844 416.45 649.461C416.696 650.036 416.881 650.632 417.005 651.249H402.085L397.276 661.729H390.617L412.196 616.908ZM433.946 646.255C434.234 643.748 434.912 641.467 435.98 639.411C437.049 637.315 438.405 635.507 440.049 633.986C441.694 632.465 443.584 631.294 445.721 630.472C447.859 629.609 450.181 629.177 452.688 629.177C454.414 629.177 456.141 629.321 457.867 629.609C459.593 629.896 461.607 630.41 463.909 631.15L460.21 661.729C459.881 664.196 459.223 666.374 458.237 668.265C457.291 670.196 456.058 671.82 454.538 673.135C453.058 674.45 451.352 675.437 449.421 676.094C447.489 676.793 445.393 677.143 443.132 677.143C441.529 677.143 439.782 676.978 437.892 676.649C436.001 676.32 434.049 675.622 432.035 674.553L434.316 669.929C436.083 670.751 437.686 671.327 439.125 671.655C440.563 672.025 441.94 672.21 443.255 672.21C444.53 672.21 445.742 672.005 446.893 671.594C448.085 671.224 449.133 670.628 450.037 669.806C450.982 668.984 451.763 667.956 452.38 666.723C453.038 665.531 453.469 664.093 453.675 662.408L457.065 634.849C456.161 634.603 455.319 634.438 454.538 634.356C453.757 634.233 452.976 634.171 452.195 634.171C449.195 634.171 446.667 635.24 444.612 637.377C442.598 639.473 441.365 642.432 440.913 646.255C440.707 647.776 440.666 649.235 440.789 650.632C440.913 651.988 441.221 653.18 441.714 654.208C442.207 655.194 442.885 655.955 443.749 656.489C444.653 656.982 445.763 657.126 447.078 656.921C448.064 656.838 448.927 657.023 449.667 657.475C450.448 657.928 451.167 658.626 451.825 659.572C450.715 660.27 449.585 660.846 448.434 661.298C447.283 661.75 446.235 662.038 445.29 662.161C443.44 662.367 441.755 662.099 440.234 661.36C438.714 660.579 437.44 659.469 436.412 658.03C435.384 656.551 434.645 654.804 434.193 652.79C433.74 650.735 433.658 648.556 433.946 646.255ZM483.412 642.186H490.563C490.851 641.076 490.913 640.028 490.748 639.042C490.625 638.055 490.337 637.192 489.885 636.452C489.433 635.712 488.816 635.137 488.036 634.726C487.296 634.274 486.433 634.048 485.446 634.048C484.254 634.048 483.124 634.294 482.055 634.788C480.987 635.281 480.021 636 479.158 636.945C478.294 637.891 477.555 639.083 476.938 640.521C476.363 641.919 475.952 643.542 475.705 645.392C475.5 647.2 475.541 648.844 475.828 650.324C476.116 651.804 476.609 653.078 477.308 654.146C478.048 655.174 478.952 655.975 480.021 656.551C481.13 657.126 482.364 657.414 483.72 657.414C485.158 657.414 486.535 657.27 487.851 656.982C489.166 656.653 490.789 656.057 492.721 655.194L493.892 659.695C491.673 660.764 489.597 661.483 487.666 661.853C485.734 662.223 483.966 662.408 482.364 662.408C479.939 662.408 477.822 661.956 476.013 661.051C474.246 660.147 472.807 658.935 471.698 657.414C470.588 655.852 469.807 654.044 469.355 651.988C468.944 649.933 468.882 647.755 469.17 645.453C469.458 642.946 470.095 640.686 471.081 638.672C472.068 636.658 473.321 634.952 474.842 633.554C476.363 632.157 478.11 631.088 480.082 630.349C482.096 629.568 484.254 629.177 486.556 629.177C488.693 629.177 490.563 629.65 492.166 630.595C493.769 631.541 494.982 632.815 495.804 634.418C496.667 635.979 497.098 637.808 497.098 639.905C497.098 642.001 496.585 644.22 495.557 646.563H477.801C478.377 645.33 479.117 644.302 480.021 643.48C480.925 642.617 482.055 642.186 483.412 642.186ZM521.845 661.729L524.619 638.733C524.825 637.418 524.681 636.349 524.188 635.527C523.694 634.664 522.852 634.233 521.66 634.233C521.249 634.233 520.838 634.274 520.427 634.356C520.016 634.438 519.584 634.52 519.132 634.603C518.721 634.685 518.29 634.746 517.838 634.788C517.427 634.829 517.016 634.808 516.605 634.726C515.988 634.644 515.433 634.377 514.94 633.924C514.488 633.472 514.056 632.938 513.645 632.321C515.947 631.088 517.858 630.266 519.379 629.855C520.941 629.403 522.318 629.177 523.51 629.177C524.66 629.177 525.75 629.362 526.777 629.732C527.846 630.061 528.75 630.616 529.49 631.397C530.23 632.136 530.764 633.143 531.093 634.418C531.463 635.692 531.545 637.254 531.339 639.103L528.565 661.729H521.845ZM504.582 630.164L509.884 629.855C510.748 630.965 511.261 632.075 511.426 633.185C511.59 634.253 511.59 635.404 511.426 636.637L508.405 661.729H501.746L504.644 637.932C504.891 635.548 504.87 632.959 504.582 630.164ZM550.641 662.408C548.545 662.408 546.613 662.058 544.846 661.36C543.079 660.661 541.578 659.613 540.345 658.215C539.112 656.818 538.208 655.092 537.633 653.037C537.098 650.94 536.996 648.515 537.324 645.762C537.653 643.049 538.352 640.665 539.421 638.61C540.53 636.555 541.866 634.829 543.428 633.431C545.031 632.034 546.798 630.986 548.73 630.287C550.662 629.547 552.655 629.177 554.71 629.177C555.82 629.177 557.012 629.28 558.286 629.485C559.601 629.691 560.855 630.02 562.047 630.472L559.889 635.034C558.82 634.705 557.793 634.479 556.806 634.356C555.82 634.233 554.916 634.171 554.094 634.171C552.943 634.171 551.833 634.418 550.765 634.911C549.696 635.404 548.71 636.144 547.805 637.13C546.942 638.076 546.202 639.268 545.586 640.706C544.969 642.145 544.538 643.83 544.291 645.762C543.839 649.666 544.291 652.584 545.647 654.516C547.045 656.448 548.915 657.414 551.258 657.414C552.121 657.414 553.107 657.291 554.217 657.044C555.327 656.756 556.622 656.304 558.101 655.688L559.211 660.25C557.444 661.072 555.82 661.627 554.34 661.914C552.861 662.243 551.628 662.408 550.641 662.408ZM566.496 671.964C567.647 671.964 568.654 671.655 569.517 671.039C570.422 670.422 571.244 669.559 571.984 668.45C572.764 667.34 573.504 666.025 574.203 664.504C574.943 662.983 575.744 661.298 576.607 659.448L589.678 629.855L596.274 630.287L581.355 661.051C580.204 663.353 579.115 665.47 578.087 667.401C577.06 669.333 575.97 670.998 574.82 672.395C573.669 673.834 572.374 674.944 570.935 675.725C569.538 676.547 567.853 676.958 565.88 676.958C564.113 676.875 562.366 676.526 560.64 675.909L562.797 671.409C564.071 671.779 565.305 671.964 566.496 671.964ZM572.045 629.855C572.703 633.226 573.381 636.617 574.08 640.028C574.82 643.439 575.395 646.81 575.806 650.139C575.929 651.166 575.929 652.215 575.806 653.283C575.683 654.352 575.477 655.379 575.189 656.366C574.902 657.311 574.532 658.195 574.08 659.017C573.669 659.839 573.217 660.517 572.723 661.051L565.078 629.855H572.045Z" fill="#8B244F"/>
<path opacity="0.5" d="M0 687.35C89 693.35 652.9 734.65 634.9 604.25C630.2 577.25 608.2 555.55 589 537.45C608.6 555.35 630.9 576.95 636 604.05C654.5 738.25 91.4 696.05 0 687.35Z" fill="#8B244F"/>
</svg>
